<?xml version="1.0" encoding="UTF-8" standalone="no"?><svg xmlns="http://www.w3.org/2000/svg" xmlns:xlink="http://www.w3.org/1999/xlink" contentScriptType="application/ecmascript" contentStyleType="text/css" height="2550px" preserveAspectRatio="none" style="width:5356px;height:2550px;" version="1.1" viewBox="0 0 5356 2550" width="5356.25px" zoomAndPan="magnify"><defs><filter height="300%" id="fogtwomhzgqv9" width="300%" x="-1" y="-1"><feGaussianBlur result="blurOut" stdDeviation="4.166666666666667"/><feColorMatrix in="blurOut" result="blurOut2" type="matrix" values="0 0 0 0 0 0 0 0 0 0 0 0 0 0 0 0 0 0 .4 0"/><feOffset dx="8.333333333333334" dy="8.333333333333334" in="blurOut2" result="blurOut3"/><feBlend in="SourceGraphic" in2="blurOut3" mode="normal"/></filter></defs><g><!--cluster Backend--><polygon fill="#FFFFFF" filter="url(#fogtwomhzgqv9)" points="3427.0833,485.4167,3554.1667,485.4167,3568.75,534.905,5143.75,534.905,5143.75,2525,3427.0833,2525,3427.0833,485.4167" style="stroke: #000000; stroke-width: 3.125;"/><line style="stroke: #000000; stroke-width: 3.125;" x1="3427.0833" x2="3568.75" y1="534.905" y2="534.905"/><text fill="#000000" font-family="Monospace" font-size="27.0833" font-weight="bold" lengthAdjust="spacingAndGlyphs" textLength="114.5833" x="3435.4167" y="520.6207">Backend</text><!--cluster _utilities--><polygon fill="#FFFFFF" filter="url(#fogtwomhzgqv9)" points="4137.5,1960.4167,4260.4167,1960.4167,4275,2009.905,5077.0833,2009.905,5077.0833,2458.3333,4137.5,2458.3333,4137.5,1960.4167" style="stroke: #000000; stroke-width: 3.125;"/><line style="stroke: #000000; stroke-width: 3.125;" x1="4137.5" x2="4275" y1="2009.905" y2="2009.905"/><text fill="#000000" font-family="Monospace" font-size="27.0833" font-weight="bold" lengthAdjust="spacingAndGlyphs" textLength="110.4167" x="4145.8333" y="1995.6207">_utilities</text><!--cluster _server--><polygon fill="#FFFFFF" filter="url(#fogtwomhzgqv9)" points="3720.8333,593.75,3829.1667,593.75,3843.75,643.2383,4010.4167,643.2383,4010.4167,1208.3333,3720.8333,1208.3333,3720.8333,593.75" style="stroke: #000000; stroke-width: 3.125;"/><line style="stroke: #000000; stroke-width: 3.125;" x1="3720.8333" x2="3843.75" y1="643.2383" y2="643.2383"/><text fill="#000000" font-family="Monospace" font-size="27.0833" font-weight="bold" lengthAdjust="spacingAndGlyphs" textLength="95.8333" x="3729.1667" y="628.9541">_server</text><!--cluster _travel--><polygon fill="#FFFFFF" filter="url(#fogtwomhzgqv9)" points="4304.1667,970.8333,4406.25,970.8333,4420.8333,1020.3217,4672.9167,1020.3217,4672.9167,1858.3333,4304.1667,1858.3333,4304.1667,970.8333" style="stroke: #000000; stroke-width: 3.125;"/><line style="stroke: #000000; stroke-width: 3.125;" x1="4304.1667" x2="4420.8333" y1="1020.3217" y2="1020.3217"/><text fill="#000000" font-family="Monospace" font-size="27.0833" font-weight="bold" lengthAdjust="spacingAndGlyphs" textLength="89.5833" x="4312.5" y="1006.0374">_travel</text><!--cluster _user--><polygon fill="#FFFFFF" filter="url(#fogtwomhzgqv9)" points="3493.75,1360.4167,3577.0833,1360.4167,3591.6667,1409.905,4054.1667,1409.905,4054.1667,2197.9167,3493.75,2197.9167,3493.75,1360.4167" style="stroke: #000000; stroke-width: 3.125;"/><line style="stroke: #000000; stroke-width: 3.125;" x1="3493.75" x2="3591.6667" y1="1409.905" y2="1409.905"/><text fill="#000000" font-family="Monospace" font-size="27.0833" font-weight="bold" lengthAdjust="spacingAndGlyphs" textLength="70.8333" x="3502.0833" y="1395.6207">_user</text><!--cluster Frontend--><polygon fill="#FFFFFF" filter="url(#fogtwomhzgqv9)" points="45.8333,50,177.0833,50,191.6667,99.4883,3139.5833,99.4883,3139.5833,1275,45.8333,1275,45.8333,50" style="stroke: #000000; stroke-width: 3.125;"/><line style="stroke: #000000; stroke-width: 3.125;" x1="45.8333" x2="191.6667" y1="99.4883" y2="99.4883"/><text fill="#000000" font-family="Monospace" font-size="27.0833" font-weight="bold" lengthAdjust="spacingAndGlyphs" textLength="118.75" x="54.1667" y="85.2041">Frontend</text><!--cluster _view--><polygon fill="#FFFFFF" filter="url(#fogtwomhzgqv9)" points="995.8333,158.3333,1085.4167,158.3333,1100,207.8217,2810.4167,207.8217,2810.4167,831.25,995.8333,831.25,995.8333,158.3333" style="stroke: #000000; stroke-width: 3.125;"/><line style="stroke: #000000; stroke-width: 3.125;" x1="995.8333" x2="1100" y1="207.8217" y2="207.8217"/><text fill="#000000" font-family="Monospace" font-size="27.0833" font-weight="bold" lengthAdjust="spacingAndGlyphs" textLength="77.0833" x="1004.1667" y="193.5374">_view</text><!--cluster _components--><polygon fill="#FFFFFF" filter="url(#fogtwomhzgqv9)" points="112.5,970.8333,300,970.8333,314.5833,1020.3217,3072.9167,1020.3217,3072.9167,1208.3333,112.5,1208.3333,112.5,970.8333" style="stroke: #000000; stroke-width: 3.125;"/><line style="stroke: #000000; stroke-width: 3.125;" x1="112.5" x2="314.5833" y1="1020.3217" y2="1020.3217"/><text fill="#000000" font-family="Monospace" font-size="27.0833" font-weight="bold" lengthAdjust="spacingAndGlyphs" textLength="175" x="120.8333" y="1006.0374">_components</text><!--cluster _controller--><polygon fill="#FFFFFF" filter="url(#fogtwomhzgqv9)" points="100,175,254.1667,175,268.75,224.4883,837.5,224.4883,837.5,814.5833,100,814.5833,100,175" style="stroke: #000000; stroke-width: 3.125;"/><line style="stroke: #000000; stroke-width: 3.125;" x1="100" x2="268.75" y1="224.4883" y2="224.4883"/><text fill="#000000" font-family="Monospace" font-size="27.0833" font-weight="bold" lengthAdjust="spacingAndGlyphs" textLength="141.6667" x="108.3333" y="210.2041">_controller</text><!--cluster _model--><polygon fill="#FFFFFF" filter="url(#fogtwomhzgqv9)" points="2877.0833,175,2987.5,175,3002.0833,224.4883,3089.5833,224.4883,3089.5833,379.1667,2877.0833,379.1667,2877.0833,175" style="stroke: #000000; stroke-width: 3.125;"/><line style="stroke: #000000; stroke-width: 3.125;" x1="2877.0833" x2="3002.0833" y1="224.4883" y2="224.4883"/><text fill="#000000" font-family="Monospace" font-size="27.0833" font-weight="bold" lengthAdjust="spacingAndGlyphs" textLength="97.9167" x="2885.4167" y="210.2041">_model</text><!--cluster leaflet.js--><polygon fill="#FFFFFF" filter="url(#fogtwomhzgqv9)" points="3189.5833,987.5,3314.5833,987.5,3329.1667,1036.9883,3377.0833,1036.9883,3377.0833,1191.6667,3189.5833,1191.6667,3189.5833,987.5" style="stroke: #000000; stroke-width: 3.125;"/><line style="stroke: #000000; stroke-width: 3.125;" x1="3189.5833" x2="3329.1667" y1="1036.9883" y2="1036.9883"/><text fill="#000000" font-family="Monospace" font-size="27.0833" font-weight="bold" lengthAdjust="spacingAndGlyphs" textLength="112.5" x="3197.9167" y="1022.7041">leaflet.js</text><!--class City--><rect fill="#FEFECE" filter="url(#fogtwomhzgqv9)" height="95.8333" id="City" style="stroke: #A80036; stroke-width: 3.125;" width="112.5" x="4429.1667" y="2052.0833"/><ellipse cx="4458.3333" cy="2083.3333" fill="#ADD1B2" rx="20.8333" ry="20.8333" style="stroke: #A80036; stroke-width: 2.0833333333333335;"/><path d="M4456.25,2092.4805 Q4453.2878,2092.4805 4451.5462,2090.2669 Q4449.8047,2088.0534 4449.8047,2083.3008 Q4449.8047,2079.2643 4451.6602,2076.6276 Q4453.5156,2073.9909 4456.6732,2073.9909 Q4459.5052,2073.9909 4460.2539,2074.1862 Q4461.0026,2074.5117 4461.0026,2074.5117 Q4461.0026,2074.5117 4461.0026,2074.3978 Q4461.0026,2074.2839 4461.7839,2072.4935 L4463.6393,2078.6458 L4461.0677,2079.4271 Q4460.2865,2076.8229 4459.2285,2075.765 Q4458.1706,2074.707 4456.4779,2074.707 Q4456.3477,2074.707 4455.127,2077.1484 Q4453.9063,2079.5898 4453.9063,2083.1706 Q4453.9063,2087.1094 4454.9642,2089.3229 Q4456.0221,2091.5365 4456.3802,2091.5365 Q4458.0729,2091.5365 4459.2773,2090.3158 Q4460.4818,2089.0951 4461.0677,2086.263 L4463.6393,2087.4023 Q4463.1185,2089.6484 4461.6862,2091.0645 Q4460.2539,2092.4805 4456.25,2092.4805 Z "/><text fill="#000000" font-family="Monospace" font-size="27.0833" font-weight="bold" lengthAdjust="spacingAndGlyphs" textLength="50" x="4485.4167" y="2095.8766">City</text><line style="stroke: #A80036; stroke-width: 3.125;" x1="4431.25" x2="4539.5833" y1="2114.5833" y2="2114.5833"/><line style="stroke: #A80036; stroke-width: 3.125;" x1="4431.25" x2="4539.5833" y1="2131.25" y2="2131.25"/><!--class Time--><rect fill="#FEFECE" filter="url(#fogtwomhzgqv9)" height="95.8333" id="Time" style="stroke: #A80036; stroke-width: 3.125;" width="129.1667" x="4227.0833" y="2052.0833"/><ellipse cx="4256.25" cy="2083.3333" fill="#ADD1B2" rx="20.8333" ry="20.8333" style="stroke: #A80036; stroke-width: 2.0833333333333335;"/><path d="M4254.1667,2092.4805 Q4251.2044,2092.4805 4249.4629,2090.2669 Q4247.7214,2088.0534 4247.7214,2083.3008 Q4247.7214,2079.2643 4249.5768,2076.6276 Q4251.4323,2073.9909 4254.5898,2073.9909 Q4257.4219,2073.9909 4258.1706,2074.1862 Q4258.9193,2074.5117 4258.9193,2074.5117 Q4258.9193,2074.5117 4258.9193,2074.3978 Q4258.9193,2074.2839 4259.7005,2072.4935 L4261.556,2078.6458 L4258.9844,2079.4271 Q4258.2031,2076.8229 4257.1452,2075.765 Q4256.0872,2074.707 4254.3945,2074.707 Q4254.2643,2074.707 4253.0436,2077.1484 Q4251.8229,2079.5898 4251.8229,2083.1706 Q4251.8229,2087.1094 4252.8809,2089.3229 Q4253.9388,2091.5365 4254.2969,2091.5365 Q4255.9896,2091.5365 4257.194,2090.3158 Q4258.3984,2089.0951 4258.9844,2086.263 L4261.556,2087.4023 Q4261.0352,2089.6484 4259.6029,2091.0645 Q4258.1706,2092.4805 4254.1667,2092.4805 Z "/><text fill="#000000" font-family="Monospace" font-size="27.0833" font-weight="bold" lengthAdjust="spacingAndGlyphs" textLength="66.6667" x="4283.3333" y="2095.8766">Time</text><line style="stroke: #A80036; stroke-width: 3.125;" x1="4229.1667" x2="4354.1667" y1="2114.5833" y2="2114.5833"/><line style="stroke: #A80036; stroke-width: 3.125;" x1="4229.1667" x2="4354.1667" y1="2131.25" y2="2131.25"/><!--class Message--><rect fill="#FEFECE" filter="url(#fogtwomhzgqv9)" height="95.8333" id="Message" style="stroke: #A80036; stroke-width: 3.125;" width="177.0833" x="4615.625" y="2052.0833"/><ellipse cx="4644.7917" cy="2083.3333" fill="#ADD1B2" rx="20.8333" ry="20.8333" style="stroke: #A80036; stroke-width: 2.0833333333333335;"/><path d="M4642.7083,2092.4805 Q4639.7461,2092.4805 4638.0046,2090.2669 Q4636.263,2088.0534 4636.263,2083.3008 Q4636.263,2079.2643 4638.1185,2076.6276 Q4639.974,2073.9909 4643.1315,2073.9909 Q4645.9635,2073.9909 4646.7122,2074.1862 Q4647.4609,2074.5117 4647.4609,2074.5117 Q4647.4609,2074.5117 4647.4609,2074.3978 Q4647.4609,2074.2839 4648.2422,2072.4935 L4650.0977,2078.6458 L4647.526,2079.4271 Q4646.7448,2076.8229 4645.6868,2075.765 Q4644.6289,2074.707 4642.9362,2074.707 Q4642.806,2074.707 4641.5853,2077.1484 Q4640.3646,2079.5898 4640.3646,2083.1706 Q4640.3646,2087.1094 4641.4225,2089.3229 Q4642.4805,2091.5365 4642.8385,2091.5365 Q4644.5313,2091.5365 4645.7357,2090.3158 Q4646.9401,2089.0951 4647.526,2086.263 L4650.0977,2087.4023 Q4649.5768,2089.6484 4648.1445,2091.0645 Q4646.7122,2092.4805 4642.7083,2092.4805 Z "/><text fill="#000000" font-family="Monospace" font-size="27.0833" font-weight="bold" lengthAdjust="spacingAndGlyphs" textLength="114.5833" x="4671.875" y="2095.8766">Message</text><line style="stroke: #A80036; stroke-width: 3.125;" x1="4617.7083" x2="4790.625" y1="2114.5833" y2="2114.5833"/><line style="stroke: #A80036; stroke-width: 3.125;" x1="4617.7083" x2="4790.625" y1="2131.25" y2="2131.25"/><!--class Utilities--><rect fill="#FEFECE" filter="url(#fogtwomhzgqv9)" height="95.8333" id="Utilities" style="stroke: #A80036; stroke-width: 3.125;" width="160.4167" x="4865.625" y="2052.0833"/><ellipse cx="4894.7917" cy="2083.3333" fill="#ADD1B2" rx="20.8333" ry="20.8333" style="stroke: #A80036; stroke-width: 2.0833333333333335;"/><path d="M4892.7083,2092.4805 Q4889.7461,2092.4805 4888.0046,2090.2669 Q4886.263,2088.0534 4886.263,2083.3008 Q4886.263,2079.2643 4888.1185,2076.6276 Q4889.974,2073.9909 4893.1315,2073.9909 Q4895.9635,2073.9909 4896.7122,2074.1862 Q4897.4609,2074.5117 4897.4609,2074.5117 Q4897.4609,2074.5117 4897.4609,2074.3978 Q4897.4609,2074.2839 4898.2422,2072.4935 L4900.0977,2078.6458 L4897.526,2079.4271 Q4896.7448,2076.8229 4895.6868,2075.765 Q4894.6289,2074.707 4892.9362,2074.707 Q4892.806,2074.707 4891.5853,2077.1484 Q4890.3646,2079.5898 4890.3646,2083.1706 Q4890.3646,2087.1094 4891.4225,2089.3229 Q4892.4805,2091.5365 4892.8385,2091.5365 Q4894.5313,2091.5365 4895.7357,2090.3158 Q4896.9401,2089.0951 4897.526,2086.263 L4900.0977,2087.4023 Q4899.5768,2089.6484 4898.1445,2091.0645 Q4896.7122,2092.4805 4892.7083,2092.4805 Z "/><text fill="#000000" font-family="Monospace" font-size="27.0833" font-weight="bold" lengthAdjust="spacingAndGlyphs" textLength="97.9167" x="4921.875" y="2095.8766">Utilities</text><line style="stroke: #A80036; stroke-width: 3.125;" x1="4867.7083" x2="5023.9583" y1="2114.5833" y2="2114.5833"/><line style="stroke: #A80036; stroke-width: 3.125;" x1="4867.7083" x2="5023.9583" y1="2131.25" y2="2131.25"/><!--class Gender--><rect fill="#FEFECE" filter="url(#fogtwomhzgqv9)" height="95.8333" id="Gender" style="stroke: #A80036; stroke-width: 3.125;" width="160.4167" x="4617.7083" y="2312.5"/><ellipse cx="4646.875" cy="2343.75" fill="#EB937F" rx="20.8333" ry="20.8333" style="stroke: #A80036; stroke-width: 2.0833333333333335;"/><path d="M4640.4297,2335.2539 L4640.4297,2334.6029 L4652.8971,2334.6029 L4654.0365,2338.2161 L4651.7578,2339.0951 Q4650.5859,2336.8164 4649.6419,2336.0352 Q4648.6979,2335.2539 4647.526,2335.2539 L4644.5638,2335.2539 Q4644.5638,2335.2539 4644.9382,2335.4655 Q4645.3125,2335.6771 4645.3125,2336.1003 L4645.3125,2342.6432 L4646.6797,2342.6432 Q4647.7214,2342.6432 4648.2096,2342.1224 Q4648.6979,2341.6016 4648.6979,2340.5273 L4648.6979,2339.9089 L4651.3997,2339.9089 L4651.3997,2346.1263 L4648.6979,2346.1263 L4648.6979,2345.7031 Q4648.6979,2344.5638 4648.2096,2343.929 Q4647.7214,2343.2943 4646.6797,2343.2943 L4645.7031,2343.2943 L4645.7031,2351.2044 Q4645.7031,2351.6276 4645.9635,2351.8392 Q4646.224,2352.0508 4646.224,2352.0508 L4647.2982,2352.0508 Q4648.8932,2352.0508 4650,2351.1556 Q4651.1068,2350.2604 4651.9857,2347.6888 L4654.362,2348.5677 L4653.1901,2352.7018 L4640.332,2352.7018 L4640.332,2352.0508 L4640.9505,2352.0508 Q4641.5039,2352.0508 4641.7155,2351.8392 Q4641.9271,2351.6276 4641.9271,2351.2044 L4641.9271,2336.1003 Q4641.9271,2335.6771 4641.7155,2335.4655 Q4641.5039,2335.2539 4640.9505,2335.2539 L4640.4297,2335.2539 Z "/><text fill="#000000" font-family="Monospace" font-size="27.0833" font-weight="bold" lengthAdjust="spacingAndGlyphs" textLength="97.9167" x="4673.9583" y="2356.2932">Gender</text><line style="stroke: #A80036; stroke-width: 3.125;" x1="4619.7917" x2="4776.0417" y1="2375" y2="2375"/><line style="stroke: #A80036; stroke-width: 3.125;" x1="4619.7917" x2="4776.0417" y1="2391.6667" y2="2391.6667"/><!--class Visibility--><rect fill="#FEFECE" filter="url(#fogtwomhzgqv9)" height="95.8333" id="Visibility" style="stroke: #A80036; stroke-width: 3.125;" width="175" x="4852.0833" y="2312.5"/><ellipse cx="4881.25" cy="2343.75" fill="#EB937F" rx="20.8333" ry="20.8333" style="stroke: #A80036; stroke-width: 2.0833333333333335;"/><path d="M4874.8047,2335.2539 L4874.8047,2334.6029 L4887.2721,2334.6029 L4888.4115,2338.2161 L4886.1328,2339.0951 Q4884.9609,2336.8164 4884.0169,2336.0352 Q4883.0729,2335.2539 4881.901,2335.2539 L4878.9388,2335.2539 Q4878.9388,2335.2539 4879.3132,2335.4655 Q4879.6875,2335.6771 4879.6875,2336.1003 L4879.6875,2342.6432 L4881.0547,2342.6432 Q4882.0964,2342.6432 4882.5846,2342.1224 Q4883.0729,2341.6016 4883.0729,2340.5273 L4883.0729,2339.9089 L4885.7747,2339.9089 L4885.7747,2346.1263 L4883.0729,2346.1263 L4883.0729,2345.7031 Q4883.0729,2344.5638 4882.5846,2343.929 Q4882.0964,2343.2943 4881.0547,2343.2943 L4880.0781,2343.2943 L4880.0781,2351.2044 Q4880.0781,2351.6276 4880.3385,2351.8392 Q4880.599,2352.0508 4880.599,2352.0508 L4881.6732,2352.0508 Q4883.2682,2352.0508 4884.375,2351.1556 Q4885.4818,2350.2604 4886.3607,2347.6888 L4888.737,2348.5677 L4887.5651,2352.7018 L4874.707,2352.7018 L4874.707,2352.0508 L4875.3255,2352.0508 Q4875.8789,2352.0508 4876.0905,2351.8392 Q4876.3021,2351.6276 4876.3021,2351.2044 L4876.3021,2336.1003 Q4876.3021,2335.6771 4876.0905,2335.4655 Q4875.8789,2335.2539 4875.3255,2335.2539 L4874.8047,2335.2539 Z "/><text fill="#000000" font-family="Monospace" font-size="27.0833" font-weight="bold" lengthAdjust="spacingAndGlyphs" textLength="112.5" x="4908.3333" y="2356.2932">Visibility</text><line style="stroke: #A80036; stroke-width: 3.125;" x1="4854.1667" x2="5025" y1="2375" y2="2375"/><line style="stroke: #A80036; stroke-width: 3.125;" x1="4854.1667" x2="5025" y1="2391.6667" y2="2391.6667"/><!--class Server--><rect fill="#FEFECE" filter="url(#fogtwomhzgqv9)" height="95.8333" id="Server" style="stroke: #A80036; stroke-width: 3.125;" width="150" x="3770.8333" y="685.4167"/><ellipse cx="3800" cy="716.6667" fill="#ADD1B2" rx="20.8333" ry="20.8333" style="stroke: #A80036; stroke-width: 2.0833333333333335;"/><path d="M3797.9167,725.8138 Q3794.9544,725.8138 3793.2129,723.6003 Q3791.4714,721.3867 3791.4714,716.6341 Q3791.4714,712.5977 3793.3268,709.9609 Q3795.1823,707.3242 3798.3398,707.3242 Q3801.1719,707.3242 3801.9206,707.5195 Q3802.6693,707.8451 3802.6693,707.8451 Q3802.6693,707.8451 3802.6693,707.7311 Q3802.6693,707.6172 3803.4505,705.8268 L3805.306,711.9792 L3802.7344,712.7604 Q3801.9531,710.1563 3800.8952,709.0983 Q3799.8372,708.0404 3798.1445,708.0404 Q3798.0143,708.0404 3796.7936,710.4818 Q3795.5729,712.9232 3795.5729,716.5039 Q3795.5729,720.4427 3796.6309,722.6563 Q3797.6888,724.8698 3798.0469,724.8698 Q3799.7396,724.8698 3800.944,723.6491 Q3802.1484,722.4284 3802.7344,719.5964 L3805.306,720.7357 Q3804.7852,722.9818 3803.3529,724.3978 Q3801.9206,725.8138 3797.9167,725.8138 Z "/><text fill="#000000" font-family="Monospace" font-size="27.0833" font-weight="bold" lengthAdjust="spacingAndGlyphs" textLength="87.5" x="3827.0833" y="729.2099">Server</text><line style="stroke: #A80036; stroke-width: 3.125;" x1="3772.9167" x2="3918.75" y1="747.9167" y2="747.9167"/><line style="stroke: #A80036; stroke-width: 3.125;" x1="3772.9167" x2="3918.75" y1="764.5833" y2="764.5833"/><!--class Interface--><rect fill="#FEFECE" filter="url(#fogtwomhzgqv9)" height="95.8333" id="Interface" style="stroke: #A80036; stroke-width: 3.125;" width="170.8333" x="3770.8333" y="1062.5"/><ellipse cx="3800" cy="1093.75" fill="#B4A7E5" rx="20.8333" ry="20.8333" style="stroke: #A80036; stroke-width: 2.0833333333333335;"/><path d="M3794.2057,1085.2539 L3794.2057,1084.6029 L3804.7526,1084.6029 L3804.7526,1085.2539 L3800.2279,1085.2539 Q3800.2279,1085.2539 3800.651,1085.4655 Q3801.0742,1085.6771 3801.0742,1086.1003 L3801.0742,1101.2044 Q3801.0742,1101.6276 3801.4811,1101.8392 Q3801.888,1102.0508 3801.888,1102.0508 L3804.7526,1102.0508 L3804.7526,1102.7018 L3794.2057,1102.7018 L3794.2057,1102.0508 L3796.6471,1102.0508 Q3797.168,1102.0508 3797.3796,1101.8392 Q3797.5911,1101.6276 3797.5911,1101.2044 L3797.5911,1086.1003 Q3797.5911,1085.6771 3797.3796,1085.4655 Q3797.168,1085.2539 3796.6471,1085.2539 L3794.2057,1085.2539 Z "/><text fill="#000000" font-family="Monospace" font-size="27.0833" font-style="italic" font-weight="bold" lengthAdjust="spacingAndGlyphs" textLength="108.3333" x="3827.0833" y="1106.2932">Interface</text><line style="stroke: #A80036; stroke-width: 3.125;" x1="3772.9167" x2="3939.5833" y1="1125" y2="1125"/><line style="stroke: #A80036; stroke-width: 3.125;" x1="3772.9167" x2="3939.5833" y1="1141.6667" y2="1141.6667"/><!--class Travel--><rect fill="#FEFECE" filter="url(#fogtwomhzgqv9)" height="95.8333" id="Travel" style="stroke: #A80036; stroke-width: 3.125;" width="145.8333" x="4364.5833" y="1452.0833"/><ellipse cx="4393.75" cy="1483.3333" fill="#ADD1B2" rx="20.8333" ry="20.8333" style="stroke: #A80036; stroke-width: 2.0833333333333335;"/><path d="M4391.6667,1492.4805 Q4388.7044,1492.4805 4386.9629,1490.2669 Q4385.2214,1488.0534 4385.2214,1483.3008 Q4385.2214,1479.2643 4387.0768,1476.6276 Q4388.9323,1473.9909 4392.0898,1473.9909 Q4394.9219,1473.9909 4395.6706,1474.1862 Q4396.4193,1474.5117 4396.4193,1474.5117 Q4396.4193,1474.5117 4396.4193,1474.3978 Q4396.4193,1474.2839 4397.2005,1472.4935 L4399.056,1478.6458 L4396.4844,1479.4271 Q4395.7031,1476.8229 4394.6452,1475.765 Q4393.5872,1474.707 4391.8945,1474.707 Q4391.7643,1474.707 4390.5436,1477.1484 Q4389.3229,1479.5898 4389.3229,1483.1706 Q4389.3229,1487.1094 4390.3809,1489.3229 Q4391.4388,1491.5365 4391.7969,1491.5365 Q4393.4896,1491.5365 4394.694,1490.3158 Q4395.8984,1489.0951 4396.4844,1486.263 L4399.056,1487.4023 Q4398.5352,1489.6484 4397.1029,1491.0645 Q4395.6706,1492.4805 4391.6667,1492.4805 Z "/><text fill="#000000" font-family="Monospace" font-size="27.0833" font-weight="bold" lengthAdjust="spacingAndGlyphs" textLength="83.3333" x="4420.8333" y="1495.8766">Travel</text><line style="stroke: #A80036; stroke-width: 3.125;" x1="4366.6667" x2="4508.3333" y1="1514.5833" y2="1514.5833"/><line style="stroke: #A80036; stroke-width: 3.125;" x1="4366.6667" x2="4508.3333" y1="1531.25" y2="1531.25"/><!--class TravelGroup--><rect fill="#FEFECE" filter="url(#fogtwomhzgqv9)" height="95.8333" id="TravelGroup" style="stroke: #A80036; stroke-width: 3.125;" width="227.0833" x="4355.2083" y="1062.5"/><ellipse cx="4384.375" cy="1093.75" fill="#ADD1B2" rx="20.8333" ry="20.8333" style="stroke: #A80036; stroke-width: 2.0833333333333335;"/><path d="M4382.2917,1102.8971 Q4379.3294,1102.8971 4377.5879,1100.6836 Q4375.8464,1098.4701 4375.8464,1093.7174 Q4375.8464,1089.681 4377.7018,1087.0443 Q4379.5573,1084.4076 4382.7148,1084.4076 Q4385.5469,1084.4076 4386.2956,1084.6029 Q4387.0443,1084.9284 4387.0443,1084.9284 Q4387.0443,1084.9284 4387.0443,1084.8145 Q4387.0443,1084.7005 4387.8255,1082.9102 L4389.681,1089.0625 L4387.1094,1089.8438 Q4386.3281,1087.2396 4385.2702,1086.1816 Q4384.2122,1085.1237 4382.5195,1085.1237 Q4382.3893,1085.1237 4381.1686,1087.5651 Q4379.9479,1090.0065 4379.9479,1093.5872 Q4379.9479,1097.526 4381.0059,1099.7396 Q4382.0638,1101.9531 4382.4219,1101.9531 Q4384.1146,1101.9531 4385.319,1100.7324 Q4386.5234,1099.5117 4387.1094,1096.6797 L4389.681,1097.819 Q4389.1602,1100.0651 4387.7279,1101.4811 Q4386.2956,1102.8971 4382.2917,1102.8971 Z "/><text fill="#000000" font-family="Monospace" font-size="27.0833" font-weight="bold" lengthAdjust="spacingAndGlyphs" textLength="164.5833" x="4411.4583" y="1106.2932">TravelGroup</text><line style="stroke: #A80036; stroke-width: 3.125;" x1="4357.2917" x2="4580.2083" y1="1125" y2="1125"/><line style="stroke: #A80036; stroke-width: 3.125;" x1="4357.2917" x2="4580.2083" y1="1141.6667" y2="1141.6667"/><!--class TravelInfo--><rect fill="#FEFECE" filter="url(#fogtwomhzgqv9)" height="95.8333" id="TravelInfo" style="stroke: #A80036; stroke-width: 3.125;" width="195.8333" x="4354.1667" y="1712.5"/><ellipse cx="4383.3333" cy="1743.75" fill="#ADD1B2" rx="20.8333" ry="20.8333" style="stroke: #A80036; stroke-width: 2.0833333333333335;"/><path d="M4381.25,1752.8971 Q4378.2878,1752.8971 4376.5462,1750.6836 Q4374.8047,1748.4701 4374.8047,1743.7174 Q4374.8047,1739.681 4376.6602,1737.0443 Q4378.5156,1734.4076 4381.6732,1734.4076 Q4384.5052,1734.4076 4385.2539,1734.6029 Q4386.0026,1734.9284 4386.0026,1734.9284 Q4386.0026,1734.9284 4386.0026,1734.8145 Q4386.0026,1734.7005 4386.7839,1732.9102 L4388.6393,1739.0625 L4386.0677,1739.8438 Q4385.2865,1737.2396 4384.2285,1736.1816 Q4383.1706,1735.1237 4381.4779,1735.1237 Q4381.3477,1735.1237 4380.127,1737.5651 Q4378.9063,1740.0065 4378.9063,1743.5872 Q4378.9063,1747.526 4379.9642,1749.7396 Q4381.0221,1751.9531 4381.3802,1751.9531 Q4383.0729,1751.9531 4384.2773,1750.7324 Q4385.4818,1749.5117 4386.0677,1746.6797 L4388.6393,1747.819 Q4388.1185,1750.0651 4386.6862,1751.4811 Q4385.2539,1752.8971 4381.25,1752.8971 Z "/><text fill="#000000" font-family="Monospace" font-size="27.0833" font-weight="bold" lengthAdjust="spacingAndGlyphs" textLength="133.3333" x="4410.4167" y="1756.2932">TravelInfo</text><line style="stroke: #A80036; stroke-width: 3.125;" x1="4356.25" x2="4547.9167" y1="1775" y2="1775"/><line style="stroke: #A80036; stroke-width: 3.125;" x1="4356.25" x2="4547.9167" y1="1791.6667" y2="1791.6667"/><!--class User--><rect fill="#FEFECE" filter="url(#fogtwomhzgqv9)" height="95.8333" id="User" style="stroke: #A80036; stroke-width: 3.125;" width="120.8333" x="3839.5833" y="1452.0833"/><ellipse cx="3868.75" cy="1483.3333" fill="#ADD1B2" rx="20.8333" ry="20.8333" style="stroke: #A80036; stroke-width: 2.0833333333333335;"/><path d="M3866.6667,1492.4805 Q3863.7044,1492.4805 3861.9629,1490.2669 Q3860.2214,1488.0534 3860.2214,1483.3008 Q3860.2214,1479.2643 3862.0768,1476.6276 Q3863.9323,1473.9909 3867.0898,1473.9909 Q3869.9219,1473.9909 3870.6706,1474.1862 Q3871.4193,1474.5117 3871.4193,1474.5117 Q3871.4193,1474.5117 3871.4193,1474.3978 Q3871.4193,1474.2839 3872.2005,1472.4935 L3874.056,1478.6458 L3871.4844,1479.4271 Q3870.7031,1476.8229 3869.6452,1475.765 Q3868.5872,1474.707 3866.8945,1474.707 Q3866.7643,1474.707 3865.5436,1477.1484 Q3864.3229,1479.5898 3864.3229,1483.1706 Q3864.3229,1487.1094 3865.3809,1489.3229 Q3866.4388,1491.5365 3866.7969,1491.5365 Q3868.4896,1491.5365 3869.694,1490.3158 Q3870.8984,1489.0951 3871.4844,1486.263 L3874.056,1487.4023 Q3873.5352,1489.6484 3872.1029,1491.0645 Q3870.6706,1492.4805 3866.6667,1492.4805 Z "/><text fill="#000000" font-family="Monospace" font-size="27.0833" font-weight="bold" lengthAdjust="spacingAndGlyphs" textLength="58.3333" x="3895.8333" y="1495.8766">User</text><line style="stroke: #A80036; stroke-width: 3.125;" x1="3841.6667" x2="3958.3333" y1="1514.5833" y2="1514.5833"/><line style="stroke: #A80036; stroke-width: 3.125;" x1="3841.6667" x2="3958.3333" y1="1531.25" y2="1531.25"/><!--class UserInfoBase--><rect fill="#FEFECE" filter="url(#fogtwomhzgqv9)" height="95.8333" id="UserInfoBase" style="stroke: #A80036; stroke-width: 3.125;" width="235.4167" x="3601.0417" y="2052.0833"/><ellipse cx="3630.2083" cy="2083.3333" fill="#ADD1B2" rx="20.8333" ry="20.8333" style="stroke: #A80036; stroke-width: 2.0833333333333335;"/><path d="M3628.125,2092.4805 Q3625.1628,2092.4805 3623.4212,2090.2669 Q3621.6797,2088.0534 3621.6797,2083.3008 Q3621.6797,2079.2643 3623.5352,2076.6276 Q3625.3906,2073.9909 3628.5482,2073.9909 Q3631.3802,2073.9909 3632.1289,2074.1862 Q3632.8776,2074.5117 3632.8776,2074.5117 Q3632.8776,2074.5117 3632.8776,2074.3978 Q3632.8776,2074.2839 3633.6589,2072.4935 L3635.5143,2078.6458 L3632.9427,2079.4271 Q3632.1615,2076.8229 3631.1035,2075.765 Q3630.0456,2074.707 3628.3529,2074.707 Q3628.2227,2074.707 3627.002,2077.1484 Q3625.7813,2079.5898 3625.7813,2083.1706 Q3625.7813,2087.1094 3626.8392,2089.3229 Q3627.8971,2091.5365 3628.2552,2091.5365 Q3629.9479,2091.5365 3631.1523,2090.3158 Q3632.3568,2089.0951 3632.9427,2086.263 L3635.5143,2087.4023 Q3634.9935,2089.6484 3633.5612,2091.0645 Q3632.1289,2092.4805 3628.125,2092.4805 Z "/><text fill="#000000" font-family="Monospace" font-size="27.0833" font-weight="bold" lengthAdjust="spacingAndGlyphs" textLength="172.9167" x="3657.2917" y="2095.8766">UserInfoBase</text><line style="stroke: #A80036; stroke-width: 3.125;" x1="3603.125" x2="3834.375" y1="2114.5833" y2="2114.5833"/><line style="stroke: #A80036; stroke-width: 3.125;" x1="3603.125" x2="3834.375" y1="2131.25" y2="2131.25"/><!--class UserInfo--><rect fill="#FEFECE" filter="url(#fogtwomhzgqv9)" height="95.8333" id="UserInfo" style="stroke: #A80036; stroke-width: 3.125;" width="170.8333" x="3543.75" y="1712.5"/><ellipse cx="3572.9167" cy="1743.75" fill="#ADD1B2" rx="20.8333" ry="20.8333" style="stroke: #A80036; stroke-width: 2.0833333333333335;"/><path d="M3570.8333,1752.8971 Q3567.8711,1752.8971 3566.1296,1750.6836 Q3564.388,1748.4701 3564.388,1743.7174 Q3564.388,1739.681 3566.2435,1737.0443 Q3568.099,1734.4076 3571.2565,1734.4076 Q3574.0885,1734.4076 3574.8372,1734.6029 Q3575.5859,1734.9284 3575.5859,1734.9284 Q3575.5859,1734.9284 3575.5859,1734.8145 Q3575.5859,1734.7005 3576.3672,1732.9102 L3578.2227,1739.0625 L3575.651,1739.8438 Q3574.8698,1737.2396 3573.8118,1736.1816 Q3572.7539,1735.1237 3571.0612,1735.1237 Q3570.931,1735.1237 3569.7103,1737.5651 Q3568.4896,1740.0065 3568.4896,1743.5872 Q3568.4896,1747.526 3569.5475,1749.7396 Q3570.6055,1751.9531 3570.9635,1751.9531 Q3572.6563,1751.9531 3573.8607,1750.7324 Q3575.0651,1749.5117 3575.651,1746.6797 L3578.2227,1747.819 Q3577.7018,1750.0651 3576.2695,1751.4811 Q3574.8372,1752.8971 3570.8333,1752.8971 Z "/><text fill="#000000" font-family="Monospace" font-size="27.0833" font-weight="bold" lengthAdjust="spacingAndGlyphs" textLength="108.3333" x="3600" y="1756.2932">UserInfo</text><line style="stroke: #A80036; stroke-width: 3.125;" x1="3545.8333" x2="3712.5" y1="1775" y2="1775"/><line style="stroke: #A80036; stroke-width: 3.125;" x1="3545.8333" x2="3712.5" y1="1791.6667" y2="1791.6667"/><!--class FriendInfo--><rect fill="#FEFECE" filter="url(#fogtwomhzgqv9)" height="95.8333" id="FriendInfo" style="stroke: #A80036; stroke-width: 3.125;" width="197.9167" x="3788.5417" y="1712.5"/><ellipse cx="3817.7083" cy="1743.75" fill="#ADD1B2" rx="20.8333" ry="20.8333" style="stroke: #A80036; stroke-width: 2.0833333333333335;"/><path d="M3815.625,1752.8971 Q3812.6628,1752.8971 3810.9212,1750.6836 Q3809.1797,1748.4701 3809.1797,1743.7174 Q3809.1797,1739.681 3811.0352,1737.0443 Q3812.8906,1734.4076 3816.0482,1734.4076 Q3818.8802,1734.4076 3819.6289,1734.6029 Q3820.3776,1734.9284 3820.3776,1734.9284 Q3820.3776,1734.9284 3820.3776,1734.8145 Q3820.3776,1734.7005 3821.1589,1732.9102 L3823.0143,1739.0625 L3820.4427,1739.8438 Q3819.6615,1737.2396 3818.6035,1736.1816 Q3817.5456,1735.1237 3815.8529,1735.1237 Q3815.7227,1735.1237 3814.502,1737.5651 Q3813.2813,1740.0065 3813.2813,1743.5872 Q3813.2813,1747.526 3814.3392,1749.7396 Q3815.3971,1751.9531 3815.7552,1751.9531 Q3817.4479,1751.9531 3818.6523,1750.7324 Q3819.8568,1749.5117 3820.4427,1746.6797 L3823.0143,1747.819 Q3822.4935,1750.0651 3821.0612,1751.4811 Q3819.6289,1752.8971 3815.625,1752.8971 Z "/><text fill="#000000" font-family="Monospace" font-size="27.0833" font-weight="bold" lengthAdjust="spacingAndGlyphs" textLength="135.4167" x="3844.7917" y="1756.2932">FriendInfo</text><line style="stroke: #A80036; stroke-width: 3.125;" x1="3790.625" x2="3984.375" y1="1775" y2="1775"/><line style="stroke: #A80036; stroke-width: 3.125;" x1="3790.625" x2="3984.375" y1="1791.6667" y2="1791.6667"/><polygon fill="#FFFFFF" filter="url(#fogtwomhzgqv9)" points="5177.0833,1052.0833,5281.25,1052.0833,5295.8333,1101.5717,5310.4167,1101.5717,5310.4167,1167.7266,5177.0833,1167.7266,5177.0833,1052.0833" style="stroke: #000000; stroke-width: 3.125;"/><line style="stroke: #000000; stroke-width: 3.125;" x1="5177.0833" x2="5295.8333" y1="1101.5717" y2="1101.5717"/><text fill="#000000" font-family="Monospace" font-size="27.0833" font-weight="bold" lengthAdjust="spacingAndGlyphs" textLength="91.6667" x="5185.4167" y="1087.2874">django</text><!--class MainBasicView--><rect fill="#FEFECE" filter="url(#fogtwomhzgqv9)" height="95.8333" id="MainBasicView" style="stroke: #A80036; stroke-width: 3.125;" width="258.3333" x="1887.5" y="250"/><ellipse cx="1916.6667" cy="281.25" fill="#A9DCDF" rx="20.8333" ry="20.8333" style="stroke: #A80036; stroke-width: 2.0833333333333335;"/><path d="M1916.8945,281.8685 L1914.2253,281.8685 L1913.2813,285.8724 Q1913.1836,286.4258 1913.1836,286.7188 Q1913.1836,287.1419 1913.3301,287.5651 Q1913.4766,287.9883 1913.4766,287.9883 L1914.5508,287.9883 L1914.5508,288.6393 L1908.5612,288.6393 L1908.5612,287.9883 L1908.8542,287.9883 Q1909.2773,287.9883 1909.6029,287.7279 Q1909.9284,287.4674 1910.026,286.849 L1914.1602,270.638 L1917.5781,269.5313 L1921.8424,286.849 Q1922.0703,287.4674 1922.3796,287.7279 Q1922.6888,287.9883 1922.6888,287.9883 L1923.4375,287.9883 L1923.4375,288.6393 L1916.7969,288.6393 L1916.7969,287.9883 L1917.2201,287.9883 Q1917.8711,287.9883 1917.9688,287.7279 Q1918.0664,287.4674 1918.0664,287.2721 Q1918.0664,286.849 1917.9688,286.5234 L1916.8945,281.8685 Z M1914.681,272.4609 L1914.681,272.4609 L1914.4531,281.2174 L1916.7969,281.2174 L1914.681,272.4609 Z "/><text fill="#000000" font-family="Monospace" font-size="27.0833" font-style="italic" font-weight="bold" lengthAdjust="spacingAndGlyphs" textLength="195.8333" x="1943.75" y="293.7932">MainBasicView</text><line style="stroke: #A80036; stroke-width: 3.125;" x1="1889.5833" x2="2143.75" y1="312.5" y2="312.5"/><line style="stroke: #A80036; stroke-width: 3.125;" x1="1889.5833" x2="2143.75" y1="329.1667" y2="329.1667"/><!--class FriendView--><rect fill="#FEFECE" filter="url(#fogtwomhzgqv9)" height="95.8333" id="FriendView" style="stroke: #A80036; stroke-width: 3.125;" width="214.5833" x="2528.125" y="685.4167"/><ellipse cx="2557.2917" cy="716.6667" fill="#ADD1B2" rx="20.8333" ry="20.8333" style="stroke: #A80036; stroke-width: 2.0833333333333335;"/><path d="M2555.2083,725.8138 Q2552.2461,725.8138 2550.5046,723.6003 Q2548.763,721.3867 2548.763,716.6341 Q2548.763,712.5977 2550.6185,709.9609 Q2552.474,707.3242 2555.6315,707.3242 Q2558.4635,707.3242 2559.2122,707.5195 Q2559.9609,707.8451 2559.9609,707.8451 Q2559.9609,707.8451 2559.9609,707.7311 Q2559.9609,707.6172 2560.7422,705.8268 L2562.5977,711.9792 L2560.026,712.7604 Q2559.2448,710.1563 2558.1868,709.0983 Q2557.1289,708.0404 2555.4362,708.0404 Q2555.306,708.0404 2554.0853,710.4818 Q2552.8646,712.9232 2552.8646,716.5039 Q2552.8646,720.4427 2553.9225,722.6563 Q2554.9805,724.8698 2555.3385,724.8698 Q2557.0313,724.8698 2558.2357,723.6491 Q2559.4401,722.4284 2560.026,719.5964 L2562.5977,720.7357 Q2562.0768,722.9818 2560.6445,724.3978 Q2559.2122,725.8138 2555.2083,725.8138 Z "/><text fill="#000000" font-family="Monospace" font-size="27.0833" font-weight="bold" lengthAdjust="spacingAndGlyphs" textLength="152.0833" x="2584.375" y="729.2099">FriendView</text><line style="stroke: #A80036; stroke-width: 3.125;" x1="2530.2083" x2="2740.625" y1="747.9167" y2="747.9167"/><line style="stroke: #A80036; stroke-width: 3.125;" x1="2530.2083" x2="2740.625" y1="764.5833" y2="764.5833"/><!--class MapView--><rect fill="#FEFECE" filter="url(#fogtwomhzgqv9)" height="95.8333" id="MapView" style="stroke: #A80036; stroke-width: 3.125;" width="185.4167" x="1923.9583" y="685.4167"/><ellipse cx="1953.125" cy="716.6667" fill="#ADD1B2" rx="20.8333" ry="20.8333" style="stroke: #A80036; stroke-width: 2.0833333333333335;"/><path d="M1951.0417,725.8138 Q1948.0794,725.8138 1946.3379,723.6003 Q1944.5964,721.3867 1944.5964,716.6341 Q1944.5964,712.5977 1946.4518,709.9609 Q1948.3073,707.3242 1951.4648,707.3242 Q1954.2969,707.3242 1955.0456,707.5195 Q1955.7943,707.8451 1955.7943,707.8451 Q1955.7943,707.8451 1955.7943,707.7311 Q1955.7943,707.6172 1956.5755,705.8268 L1958.431,711.9792 L1955.8594,712.7604 Q1955.0781,710.1563 1954.0202,709.0983 Q1952.9622,708.0404 1951.2695,708.0404 Q1951.1393,708.0404 1949.9186,710.4818 Q1948.6979,712.9232 1948.6979,716.5039 Q1948.6979,720.4427 1949.7559,722.6563 Q1950.8138,724.8698 1951.1719,724.8698 Q1952.8646,724.8698 1954.069,723.6491 Q1955.2734,722.4284 1955.8594,719.5964 L1958.431,720.7357 Q1957.9102,722.9818 1956.4779,724.3978 Q1955.0456,725.8138 1951.0417,725.8138 Z "/><text fill="#000000" font-family="Monospace" font-size="27.0833" font-weight="bold" lengthAdjust="spacingAndGlyphs" textLength="122.9167" x="1980.2083" y="729.2099">MapView</text><line style="stroke: #A80036; stroke-width: 3.125;" x1="1926.0417" x2="2107.2917" y1="747.9167" y2="747.9167"/><line style="stroke: #A80036; stroke-width: 3.125;" x1="1926.0417" x2="2107.2917" y1="764.5833" y2="764.5833"/><!--class MapComponent--><rect fill="#FEFECE" filter="url(#fogtwomhzgqv9)" height="95.8333" id="MapComponent" style="stroke: #A80036; stroke-width: 3.125;" width="270.8333" x="2183.3333" y="685.4167"/><ellipse cx="2212.5" cy="716.6667" fill="#ADD1B2" rx="20.8333" ry="20.8333" style="stroke: #A80036; stroke-width: 2.0833333333333335;"/><path d="M2210.4167,725.8138 Q2207.4544,725.8138 2205.7129,723.6003 Q2203.9714,721.3867 2203.9714,716.6341 Q2203.9714,712.5977 2205.8268,709.9609 Q2207.6823,707.3242 2210.8398,707.3242 Q2213.6719,707.3242 2214.4206,707.5195 Q2215.1693,707.8451 2215.1693,707.8451 Q2215.1693,707.8451 2215.1693,707.7311 Q2215.1693,707.6172 2215.9505,705.8268 L2217.806,711.9792 L2215.2344,712.7604 Q2214.4531,710.1563 2213.3952,709.0983 Q2212.3372,708.0404 2210.6445,708.0404 Q2210.5143,708.0404 2209.2936,710.4818 Q2208.0729,712.9232 2208.0729,716.5039 Q2208.0729,720.4427 2209.1309,722.6563 Q2210.1888,724.8698 2210.5469,724.8698 Q2212.2396,724.8698 2213.444,723.6491 Q2214.6484,722.4284 2215.2344,719.5964 L2217.806,720.7357 Q2217.2852,722.9818 2215.8529,724.3978 Q2214.4206,725.8138 2210.4167,725.8138 Z "/><text fill="#000000" font-family="Monospace" font-size="27.0833" font-weight="bold" lengthAdjust="spacingAndGlyphs" textLength="208.3333" x="2239.5833" y="729.2099">MapComponent</text><line style="stroke: #A80036; stroke-width: 3.125;" x1="2185.4167" x2="2452.0833" y1="747.9167" y2="747.9167"/><line style="stroke: #A80036; stroke-width: 3.125;" x1="2185.4167" x2="2452.0833" y1="764.5833" y2="764.5833"/><!--class ProfileView--><rect fill="#FEFECE" filter="url(#fogtwomhzgqv9)" height="95.8333" id="ProfileView" style="stroke: #A80036; stroke-width: 3.125;" width="216.6667" x="1633.3333" y="685.4167"/><ellipse cx="1662.5" cy="716.6667" fill="#ADD1B2" rx="20.8333" ry="20.8333" style="stroke: #A80036; stroke-width: 2.0833333333333335;"/><path d="M1660.4167,725.8138 Q1657.4544,725.8138 1655.7129,723.6003 Q1653.9714,721.3867 1653.9714,716.6341 Q1653.9714,712.5977 1655.8268,709.9609 Q1657.6823,707.3242 1660.8398,707.3242 Q1663.6719,707.3242 1664.4206,707.5195 Q1665.1693,707.8451 1665.1693,707.8451 Q1665.1693,707.8451 1665.1693,707.7311 Q1665.1693,707.6172 1665.9505,705.8268 L1667.806,711.9792 L1665.2344,712.7604 Q1664.4531,710.1563 1663.3952,709.0983 Q1662.3372,708.0404 1660.6445,708.0404 Q1660.5143,708.0404 1659.2936,710.4818 Q1658.0729,712.9232 1658.0729,716.5039 Q1658.0729,720.4427 1659.1309,722.6563 Q1660.1888,724.8698 1660.5469,724.8698 Q1662.2396,724.8698 1663.444,723.6491 Q1664.6484,722.4284 1665.2344,719.5964 L1667.806,720.7357 Q1667.2852,722.9818 1665.8529,724.3978 Q1664.4206,725.8138 1660.4167,725.8138 Z "/><text fill="#000000" font-family="Monospace" font-size="27.0833" font-weight="bold" lengthAdjust="spacingAndGlyphs" textLength="154.1667" x="1689.5833" y="729.2099">ProfileView</text><line style="stroke: #A80036; stroke-width: 3.125;" x1="1635.4167" x2="1847.9167" y1="747.9167" y2="747.9167"/><line style="stroke: #A80036; stroke-width: 3.125;" x1="1635.4167" x2="1847.9167" y1="764.5833" y2="764.5833"/><!--class EntranceBasicView--><rect fill="#FEFECE" filter="url(#fogtwomhzgqv9)" height="95.8333" id="EntranceBasicView" style="stroke: #A80036; stroke-width: 3.125;" width="308.3333" x="1045.8333" y="250"/><ellipse cx="1075" cy="281.25" fill="#A9DCDF" rx="20.8333" ry="20.8333" style="stroke: #A80036; stroke-width: 2.0833333333333335;"/><path d="M1075.2279,281.8685 L1072.5586,281.8685 L1071.6146,285.8724 Q1071.5169,286.4258 1071.5169,286.7188 Q1071.5169,287.1419 1071.6634,287.5651 Q1071.8099,287.9883 1071.8099,287.9883 L1072.8841,287.9883 L1072.8841,288.6393 L1066.8945,288.6393 L1066.8945,287.9883 L1067.1875,287.9883 Q1067.6107,287.9883 1067.9362,287.7279 Q1068.2617,287.4674 1068.3594,286.849 L1072.4935,270.638 L1075.9115,269.5313 L1080.1758,286.849 Q1080.4036,287.4674 1080.7129,287.7279 Q1081.0221,287.9883 1081.0221,287.9883 L1081.7708,287.9883 L1081.7708,288.6393 L1075.1302,288.6393 L1075.1302,287.9883 L1075.5534,287.9883 Q1076.2044,287.9883 1076.3021,287.7279 Q1076.3997,287.4674 1076.3997,287.2721 Q1076.3997,286.849 1076.3021,286.5234 L1075.2279,281.8685 Z M1073.0143,272.4609 L1073.0143,272.4609 L1072.7865,281.2174 L1075.1302,281.2174 L1073.0143,272.4609 Z "/><text fill="#000000" font-family="Monospace" font-size="27.0833" font-style="italic" font-weight="bold" lengthAdjust="spacingAndGlyphs" textLength="245.8333" x="1102.0833" y="293.7932">EntranceBasicView</text><line style="stroke: #A80036; stroke-width: 3.125;" x1="1047.9167" x2="1352.0833" y1="312.5" y2="312.5"/><line style="stroke: #A80036; stroke-width: 3.125;" x1="1047.9167" x2="1352.0833" y1="329.1667" y2="329.1667"/><!--class LoginView--><rect fill="#FEFECE" filter="url(#fogtwomhzgqv9)" height="95.8333" id="LoginView" style="stroke: #A80036; stroke-width: 3.125;" width="204.1667" x="1045.8333" y="685.4167"/><ellipse cx="1075" cy="716.6667" fill="#ADD1B2" rx="20.8333" ry="20.8333" style="stroke: #A80036; stroke-width: 2.0833333333333335;"/><path d="M1072.9167,725.8138 Q1069.9544,725.8138 1068.2129,723.6003 Q1066.4714,721.3867 1066.4714,716.6341 Q1066.4714,712.5977 1068.3268,709.9609 Q1070.1823,707.3242 1073.3398,707.3242 Q1076.1719,707.3242 1076.9206,707.5195 Q1077.6693,707.8451 1077.6693,707.8451 Q1077.6693,707.8451 1077.6693,707.7311 Q1077.6693,707.6172 1078.4505,705.8268 L1080.306,711.9792 L1077.7344,712.7604 Q1076.9531,710.1563 1075.8952,709.0983 Q1074.8372,708.0404 1073.1445,708.0404 Q1073.0143,708.0404 1071.7936,710.4818 Q1070.5729,712.9232 1070.5729,716.5039 Q1070.5729,720.4427 1071.6309,722.6563 Q1072.6888,724.8698 1073.0469,724.8698 Q1074.7396,724.8698 1075.944,723.6491 Q1077.1484,722.4284 1077.7344,719.5964 L1080.306,720.7357 Q1079.7852,722.9818 1078.3529,724.3978 Q1076.9206,725.8138 1072.9167,725.8138 Z "/><text fill="#000000" font-family="Monospace" font-size="27.0833" font-weight="bold" lengthAdjust="spacingAndGlyphs" textLength="141.6667" x="1102.0833" y="729.2099">LoginView</text><line style="stroke: #A80036; stroke-width: 3.125;" x1="1047.9167" x2="1247.9167" y1="747.9167" y2="747.9167"/><line style="stroke: #A80036; stroke-width: 3.125;" x1="1047.9167" x2="1247.9167" y1="764.5833" y2="764.5833"/><!--class RegisterView--><rect fill="#FEFECE" filter="url(#fogtwomhzgqv9)" height="95.8333" id="RegisterView" style="stroke: #A80036; stroke-width: 3.125;" width="237.5" x="1322.9167" y="685.4167"/><ellipse cx="1352.0833" cy="716.6667" fill="#ADD1B2" rx="20.8333" ry="20.8333" style="stroke: #A80036; stroke-width: 2.0833333333333335;"/><path d="M1350,725.8138 Q1347.0378,725.8138 1345.2962,723.6003 Q1343.5547,721.3867 1343.5547,716.6341 Q1343.5547,712.5977 1345.4102,709.9609 Q1347.2656,707.3242 1350.4232,707.3242 Q1353.2552,707.3242 1354.0039,707.5195 Q1354.7526,707.8451 1354.7526,707.8451 Q1354.7526,707.8451 1354.7526,707.7311 Q1354.7526,707.6172 1355.5339,705.8268 L1357.3893,711.9792 L1354.8177,712.7604 Q1354.0365,710.1563 1352.9785,709.0983 Q1351.9206,708.0404 1350.2279,708.0404 Q1350.0977,708.0404 1348.877,710.4818 Q1347.6563,712.9232 1347.6563,716.5039 Q1347.6563,720.4427 1348.7142,722.6563 Q1349.7721,724.8698 1350.1302,724.8698 Q1351.8229,724.8698 1353.0273,723.6491 Q1354.2318,722.4284 1354.8177,719.5964 L1357.3893,720.7357 Q1356.8685,722.9818 1355.4362,724.3978 Q1354.0039,725.8138 1350,725.8138 Z "/><text fill="#000000" font-family="Monospace" font-size="27.0833" font-weight="bold" lengthAdjust="spacingAndGlyphs" textLength="175" x="1379.1667" y="729.2099">RegisterView</text><line style="stroke: #A80036; stroke-width: 3.125;" x1="1325" x2="1558.3333" y1="747.9167" y2="747.9167"/><line style="stroke: #A80036; stroke-width: 3.125;" x1="1325" x2="1558.3333" y1="764.5833" y2="764.5833"/><!--class HeaderComponent--><rect fill="#FEFECE" filter="url(#fogtwomhzgqv9)" height="95.8333" id="HeaderComponent" style="stroke: #A80036; stroke-width: 3.125;" width="310.4167" x="2671.875" y="1062.5"/><ellipse cx="2701.0417" cy="1093.75" fill="#ADD1B2" rx="20.8333" ry="20.8333" style="stroke: #A80036; stroke-width: 2.0833333333333335;"/><path d="M2698.9583,1102.8971 Q2695.9961,1102.8971 2694.2546,1100.6836 Q2692.513,1098.4701 2692.513,1093.7174 Q2692.513,1089.681 2694.3685,1087.0443 Q2696.224,1084.4076 2699.3815,1084.4076 Q2702.2135,1084.4076 2702.9622,1084.6029 Q2703.7109,1084.9284 2703.7109,1084.9284 Q2703.7109,1084.9284 2703.7109,1084.8145 Q2703.7109,1084.7005 2704.4922,1082.9102 L2706.3477,1089.0625 L2703.776,1089.8438 Q2702.9948,1087.2396 2701.9368,1086.1816 Q2700.8789,1085.1237 2699.1862,1085.1237 Q2699.056,1085.1237 2697.8353,1087.5651 Q2696.6146,1090.0065 2696.6146,1093.5872 Q2696.6146,1097.526 2697.6725,1099.7396 Q2698.7305,1101.9531 2699.0885,1101.9531 Q2700.7813,1101.9531 2701.9857,1100.7324 Q2703.1901,1099.5117 2703.776,1096.6797 L2706.3477,1097.819 Q2705.8268,1100.0651 2704.3945,1101.4811 Q2702.9622,1102.8971 2698.9583,1102.8971 Z "/><text fill="#000000" font-family="Monospace" font-size="27.0833" font-weight="bold" lengthAdjust="spacingAndGlyphs" textLength="247.9167" x="2728.125" y="1106.2932">HeaderComponent</text><line style="stroke: #A80036; stroke-width: 3.125;" x1="2673.9583" x2="2980.2083" y1="1125" y2="1125"/><line style="stroke: #A80036; stroke-width: 3.125;" x1="2673.9583" x2="2980.2083" y1="1141.6667" y2="1141.6667"/><!--class RegisterComponent--><rect fill="#FEFECE" filter="url(#fogtwomhzgqv9)" height="95.8333" id="RegisterComponent" style="stroke: #A80036; stroke-width: 3.125;" width="322.9167" x="1401.0417" y="1062.5"/><ellipse cx="1430.2083" cy="1093.75" fill="#ADD1B2" rx="20.8333" ry="20.8333" style="stroke: #A80036; stroke-width: 2.0833333333333335;"/><path d="M1428.125,1102.8971 Q1425.1628,1102.8971 1423.4212,1100.6836 Q1421.6797,1098.4701 1421.6797,1093.7174 Q1421.6797,1089.681 1423.5352,1087.0443 Q1425.3906,1084.4076 1428.5482,1084.4076 Q1431.3802,1084.4076 1432.1289,1084.6029 Q1432.8776,1084.9284 1432.8776,1084.9284 Q1432.8776,1084.9284 1432.8776,1084.8145 Q1432.8776,1084.7005 1433.6589,1082.9102 L1435.5143,1089.0625 L1432.9427,1089.8438 Q1432.1615,1087.2396 1431.1035,1086.1816 Q1430.0456,1085.1237 1428.3529,1085.1237 Q1428.2227,1085.1237 1427.002,1087.5651 Q1425.7813,1090.0065 1425.7813,1093.5872 Q1425.7813,1097.526 1426.8392,1099.7396 Q1427.8971,1101.9531 1428.2552,1101.9531 Q1429.9479,1101.9531 1431.1523,1100.7324 Q1432.3568,1099.5117 1432.9427,1096.6797 L1435.5143,1097.819 Q1434.9935,1100.0651 1433.5612,1101.4811 Q1432.1289,1102.8971 1428.125,1102.8971 Z "/><text fill="#000000" font-family="Monospace" font-size="27.0833" font-weight="bold" lengthAdjust="spacingAndGlyphs" textLength="260.4167" x="1457.2917" y="1106.2932">RegisterComponent</text><line style="stroke: #A80036; stroke-width: 3.125;" x1="1403.125" x2="1721.875" y1="1125" y2="1125"/><line style="stroke: #A80036; stroke-width: 3.125;" x1="1403.125" x2="1721.875" y1="1141.6667" y2="1141.6667"/><!--class LoginComponent--><rect fill="#FEFECE" filter="url(#fogtwomhzgqv9)" height="95.8333" id="LoginComponent" style="stroke: #A80036; stroke-width: 3.125;" width="289.5833" x="1038.5417" y="1062.5"/><ellipse cx="1067.7083" cy="1093.75" fill="#ADD1B2" rx="20.8333" ry="20.8333" style="stroke: #A80036; stroke-width: 2.0833333333333335;"/><path d="M1065.625,1102.8971 Q1062.6628,1102.8971 1060.9212,1100.6836 Q1059.1797,1098.4701 1059.1797,1093.7174 Q1059.1797,1089.681 1061.0352,1087.0443 Q1062.8906,1084.4076 1066.0482,1084.4076 Q1068.8802,1084.4076 1069.6289,1084.6029 Q1070.3776,1084.9284 1070.3776,1084.9284 Q1070.3776,1084.9284 1070.3776,1084.8145 Q1070.3776,1084.7005 1071.1589,1082.9102 L1073.0143,1089.0625 L1070.4427,1089.8438 Q1069.6615,1087.2396 1068.6035,1086.1816 Q1067.5456,1085.1237 1065.8529,1085.1237 Q1065.7227,1085.1237 1064.502,1087.5651 Q1063.2813,1090.0065 1063.2813,1093.5872 Q1063.2813,1097.526 1064.3392,1099.7396 Q1065.3971,1101.9531 1065.7552,1101.9531 Q1067.4479,1101.9531 1068.6523,1100.7324 Q1069.8568,1099.5117 1070.4427,1096.6797 L1073.0143,1097.819 Q1072.4935,1100.0651 1071.0612,1101.4811 Q1069.6289,1102.8971 1065.625,1102.8971 Z "/><text fill="#000000" font-family="Monospace" font-size="27.0833" font-weight="bold" lengthAdjust="spacingAndGlyphs" textLength="227.0833" x="1094.7917" y="1106.2932">LoginComponent</text><line style="stroke: #A80036; stroke-width: 3.125;" x1="1040.625" x2="1326.0417" y1="1125" y2="1125"/><line style="stroke: #A80036; stroke-width: 3.125;" x1="1040.625" x2="1326.0417" y1="1141.6667" y2="1141.6667"/><!--class BackgroundComponent--><rect fill="#FEFECE" filter="url(#fogtwomhzgqv9)" height="95.8333" id="BackgroundComponent" style="stroke: #A80036; stroke-width: 3.125;" width="372.9167" x="163.5417" y="1062.5"/><ellipse cx="192.7083" cy="1093.75" fill="#ADD1B2" rx="20.8333" ry="20.8333" style="stroke: #A80036; stroke-width: 2.0833333333333335;"/><path d="M190.625,1102.8971 Q187.6628,1102.8971 185.9212,1100.6836 Q184.1797,1098.4701 184.1797,1093.7174 Q184.1797,1089.681 186.0352,1087.0443 Q187.8906,1084.4076 191.0482,1084.4076 Q193.8802,1084.4076 194.6289,1084.6029 Q195.3776,1084.9284 195.3776,1084.9284 Q195.3776,1084.9284 195.3776,1084.8145 Q195.3776,1084.7005 196.1589,1082.9102 L198.0143,1089.0625 L195.4427,1089.8438 Q194.6615,1087.2396 193.6035,1086.1816 Q192.5456,1085.1237 190.8529,1085.1237 Q190.7227,1085.1237 189.502,1087.5651 Q188.2813,1090.0065 188.2813,1093.5872 Q188.2813,1097.526 189.3392,1099.7396 Q190.3971,1101.9531 190.7552,1101.9531 Q192.4479,1101.9531 193.6523,1100.7324 Q194.8568,1099.5117 195.4427,1096.6797 L198.0143,1097.819 Q197.4935,1100.0651 196.0612,1101.4811 Q194.6289,1102.8971 190.625,1102.8971 Z "/><text fill="#000000" font-family="Monospace" font-size="27.0833" font-weight="bold" lengthAdjust="spacingAndGlyphs" textLength="310.4167" x="219.7917" y="1106.2932">BackgroundComponent</text><line style="stroke: #A80036; stroke-width: 3.125;" x1="165.625" x2="534.375" y1="1125" y2="1125"/><line style="stroke: #A80036; stroke-width: 3.125;" x1="165.625" x2="534.375" y1="1141.6667" y2="1141.6667"/><!--class NavigationComponent--><rect fill="#FEFECE" filter="url(#fogtwomhzgqv9)" height="95.8333" id="NavigationComponent" style="stroke: #A80036; stroke-width: 3.125;" width="356.25" x="609.375" y="1062.5"/><ellipse cx="638.5417" cy="1093.75" fill="#ADD1B2" rx="20.8333" ry="20.8333" style="stroke: #A80036; stroke-width: 2.0833333333333335;"/><path d="M636.4583,1102.8971 Q633.4961,1102.8971 631.7546,1100.6836 Q630.013,1098.4701 630.013,1093.7174 Q630.013,1089.681 631.8685,1087.0443 Q633.724,1084.4076 636.8815,1084.4076 Q639.7135,1084.4076 640.4622,1084.6029 Q641.2109,1084.9284 641.2109,1084.9284 Q641.2109,1084.9284 641.2109,1084.8145 Q641.2109,1084.7005 641.9922,1082.9102 L643.8477,1089.0625 L641.276,1089.8438 Q640.4948,1087.2396 639.4368,1086.1816 Q638.3789,1085.1237 636.6862,1085.1237 Q636.556,1085.1237 635.3353,1087.5651 Q634.1146,1090.0065 634.1146,1093.5872 Q634.1146,1097.526 635.1725,1099.7396 Q636.2305,1101.9531 636.5885,1101.9531 Q638.2813,1101.9531 639.4857,1100.7324 Q640.6901,1099.5117 641.276,1096.6797 L643.8477,1097.819 Q643.3268,1100.0651 641.8945,1101.4811 Q640.4622,1102.8971 636.4583,1102.8971 Z "/><text fill="#000000" font-family="Monospace" font-size="27.0833" font-weight="bold" lengthAdjust="spacingAndGlyphs" textLength="293.75" x="665.625" y="1106.2932">NavigationComponent</text><line style="stroke: #A80036; stroke-width: 3.125;" x1="611.4583" x2="963.5417" y1="1125" y2="1125"/><line style="stroke: #A80036; stroke-width: 3.125;" x1="611.4583" x2="963.5417" y1="1141.6667" y2="1141.6667"/><!--class FriendRequestComponent--><rect fill="#FEFECE" filter="url(#fogtwomhzgqv9)" height="95.8333" id="FriendRequestComponent" style="stroke: #A80036; stroke-width: 3.125;" width="406.25" x="2192.7083" y="1062.5"/><ellipse cx="2221.875" cy="1093.75" fill="#ADD1B2" rx="20.8333" ry="20.8333" style="stroke: #A80036; stroke-width: 2.0833333333333335;"/><path d="M2219.7917,1102.8971 Q2216.8294,1102.8971 2215.0879,1100.6836 Q2213.3464,1098.4701 2213.3464,1093.7174 Q2213.3464,1089.681 2215.2018,1087.0443 Q2217.0573,1084.4076 2220.2148,1084.4076 Q2223.0469,1084.4076 2223.7956,1084.6029 Q2224.5443,1084.9284 2224.5443,1084.9284 Q2224.5443,1084.9284 2224.5443,1084.8145 Q2224.5443,1084.7005 2225.3255,1082.9102 L2227.181,1089.0625 L2224.6094,1089.8438 Q2223.8281,1087.2396 2222.7702,1086.1816 Q2221.7122,1085.1237 2220.0195,1085.1237 Q2219.8893,1085.1237 2218.6686,1087.5651 Q2217.4479,1090.0065 2217.4479,1093.5872 Q2217.4479,1097.526 2218.5059,1099.7396 Q2219.5638,1101.9531 2219.9219,1101.9531 Q2221.6146,1101.9531 2222.819,1100.7324 Q2224.0234,1099.5117 2224.6094,1096.6797 L2227.181,1097.819 Q2226.6602,1100.0651 2225.2279,1101.4811 Q2223.7956,1102.8971 2219.7917,1102.8971 Z "/><text fill="#000000" font-family="Monospace" font-size="27.0833" font-weight="bold" lengthAdjust="spacingAndGlyphs" textLength="343.75" x="2248.9583" y="1106.2932">FriendRequestComponent</text><line style="stroke: #A80036; stroke-width: 3.125;" x1="2194.7917" x2="2596.875" y1="1125" y2="1125"/><line style="stroke: #A80036; stroke-width: 3.125;" x1="2194.7917" x2="2596.875" y1="1141.6667" y2="1141.6667"/><!--class UserInfoComponent--><rect fill="#FEFECE" filter="url(#fogtwomhzgqv9)" height="95.8333" id="UserInfoComponent" style="stroke: #A80036; stroke-width: 3.125;" width="322.9167" x="1796.875" y="1062.5"/><ellipse cx="1826.0417" cy="1093.75" fill="#ADD1B2" rx="20.8333" ry="20.8333" style="stroke: #A80036; stroke-width: 2.0833333333333335;"/><path d="M1823.9583,1102.8971 Q1820.9961,1102.8971 1819.2546,1100.6836 Q1817.513,1098.4701 1817.513,1093.7174 Q1817.513,1089.681 1819.3685,1087.0443 Q1821.224,1084.4076 1824.3815,1084.4076 Q1827.2135,1084.4076 1827.9622,1084.6029 Q1828.7109,1084.9284 1828.7109,1084.9284 Q1828.7109,1084.9284 1828.7109,1084.8145 Q1828.7109,1084.7005 1829.4922,1082.9102 L1831.3477,1089.0625 L1828.776,1089.8438 Q1827.9948,1087.2396 1826.9368,1086.1816 Q1825.8789,1085.1237 1824.1862,1085.1237 Q1824.056,1085.1237 1822.8353,1087.5651 Q1821.6146,1090.0065 1821.6146,1093.5872 Q1821.6146,1097.526 1822.6725,1099.7396 Q1823.7305,1101.9531 1824.0885,1101.9531 Q1825.7813,1101.9531 1826.9857,1100.7324 Q1828.1901,1099.5117 1828.776,1096.6797 L1831.3477,1097.819 Q1830.8268,1100.0651 1829.3945,1101.4811 Q1827.9622,1102.8971 1823.9583,1102.8971 Z "/><text fill="#000000" font-family="Monospace" font-size="27.0833" font-weight="bold" lengthAdjust="spacingAndGlyphs" textLength="260.4167" x="1853.125" y="1106.2932">UserInfoComponent</text><line style="stroke: #A80036; stroke-width: 3.125;" x1="1798.9583" x2="2117.7083" y1="1125" y2="1125"/><line style="stroke: #A80036; stroke-width: 3.125;" x1="1798.9583" x2="2117.7083" y1="1141.6667" y2="1141.6667"/><!--class UserInfoController--><rect fill="#FEFECE" filter="url(#fogtwomhzgqv9)" height="95.8333" id="UserInfoController" style="stroke: #A80036; stroke-width: 3.125;" width="302.0833" x="134.375" y="250"/><ellipse cx="163.5417" cy="281.25" fill="#ADD1B2" rx="20.8333" ry="20.8333" style="stroke: #A80036; stroke-width: 2.0833333333333335;"/><path d="M161.4583,290.3971 Q158.4961,290.3971 156.7546,288.1836 Q155.013,285.9701 155.013,281.2174 Q155.013,277.181 156.8685,274.5443 Q158.724,271.9076 161.8815,271.9076 Q164.7135,271.9076 165.4622,272.1029 Q166.2109,272.4284 166.2109,272.4284 Q166.2109,272.4284 166.2109,272.3145 Q166.2109,272.2005 166.9922,270.4102 L168.8477,276.5625 L166.276,277.3438 Q165.4948,274.7396 164.4368,273.6816 Q163.3789,272.6237 161.6862,272.6237 Q161.556,272.6237 160.3353,275.0651 Q159.1146,277.5065 159.1146,281.0872 Q159.1146,285.026 160.1725,287.2396 Q161.2305,289.4531 161.5885,289.4531 Q163.2813,289.4531 164.4857,288.2324 Q165.6901,287.0117 166.276,284.1797 L168.8477,285.319 Q168.3268,287.5651 166.8945,288.9811 Q165.4622,290.3971 161.4583,290.3971 Z "/><text fill="#000000" font-family="Monospace" font-size="27.0833" font-weight="bold" lengthAdjust="spacingAndGlyphs" textLength="239.5833" x="190.625" y="293.7932">UserInfoController</text><line style="stroke: #A80036; stroke-width: 3.125;" x1="136.4583" x2="434.375" y1="312.5" y2="312.5"/><line style="stroke: #A80036; stroke-width: 3.125;" x1="136.4583" x2="434.375" y1="329.1667" y2="329.1667"/><!--class CityInfoController--><rect fill="#FEFECE" filter="url(#fogtwomhzgqv9)" height="95.8333" id="CityInfoController" style="stroke: #A80036; stroke-width: 3.125;" width="293.75" x="509.375" y="250"/><ellipse cx="538.5417" cy="281.25" fill="#ADD1B2" rx="20.8333" ry="20.8333" style="stroke: #A80036; stroke-width: 2.0833333333333335;"/><path d="M536.4583,290.3971 Q533.4961,290.3971 531.7546,288.1836 Q530.013,285.9701 530.013,281.2174 Q530.013,277.181 531.8685,274.5443 Q533.724,271.9076 536.8815,271.9076 Q539.7135,271.9076 540.4622,272.1029 Q541.2109,272.4284 541.2109,272.4284 Q541.2109,272.4284 541.2109,272.3145 Q541.2109,272.2005 541.9922,270.4102 L543.8477,276.5625 L541.276,277.3438 Q540.4948,274.7396 539.4368,273.6816 Q538.3789,272.6237 536.6862,272.6237 Q536.556,272.6237 535.3353,275.0651 Q534.1146,277.5065 534.1146,281.0872 Q534.1146,285.026 535.1725,287.2396 Q536.2305,289.4531 536.5885,289.4531 Q538.2813,289.4531 539.4857,288.2324 Q540.6901,287.0117 541.276,284.1797 L543.8477,285.319 Q543.3268,287.5651 541.8945,288.9811 Q540.4622,290.3971 536.4583,290.3971 Z "/><text fill="#000000" font-family="Monospace" font-size="27.0833" font-weight="bold" lengthAdjust="spacingAndGlyphs" textLength="231.25" x="565.625" y="293.7932">CityInfoController</text><line style="stroke: #A80036; stroke-width: 3.125;" x1="511.4583" x2="801.0417" y1="312.5" y2="312.5"/><line style="stroke: #A80036; stroke-width: 3.125;" x1="511.4583" x2="801.0417" y1="329.1667" y2="329.1667"/><!--class TravelController--><rect fill="#FEFECE" filter="url(#fogtwomhzgqv9)" height="95.8333" id="TravelController" style="stroke: #A80036; stroke-width: 3.125;" width="277.0833" x="146.875" y="685.4167"/><ellipse cx="176.0417" cy="716.6667" fill="#ADD1B2" rx="20.8333" ry="20.8333" style="stroke: #A80036; stroke-width: 2.0833333333333335;"/><path d="M173.9583,725.8138 Q170.9961,725.8138 169.2546,723.6003 Q167.513,721.3867 167.513,716.6341 Q167.513,712.5977 169.3685,709.9609 Q171.224,707.3242 174.3815,707.3242 Q177.2135,707.3242 177.9622,707.5195 Q178.7109,707.8451 178.7109,707.8451 Q178.7109,707.8451 178.7109,707.7311 Q178.7109,707.6172 179.4922,705.8268 L181.3477,711.9792 L178.776,712.7604 Q177.9948,710.1563 176.9368,709.0983 Q175.8789,708.0404 174.1862,708.0404 Q174.056,708.0404 172.8353,710.4818 Q171.6146,712.9232 171.6146,716.5039 Q171.6146,720.4427 172.6725,722.6563 Q173.7305,724.8698 174.0885,724.8698 Q175.7813,724.8698 176.9857,723.6491 Q178.1901,722.4284 178.776,719.5964 L181.3477,720.7357 Q180.8268,722.9818 179.3945,724.3978 Q177.9622,725.8138 173.9583,725.8138 Z "/><text fill="#000000" font-family="Monospace" font-size="27.0833" font-weight="bold" lengthAdjust="spacingAndGlyphs" textLength="214.5833" x="203.125" y="729.2099">TravelController</text><line style="stroke: #A80036; stroke-width: 3.125;" x1="148.9583" x2="421.875" y1="747.9167" y2="747.9167"/><line style="stroke: #A80036; stroke-width: 3.125;" x1="148.9583" x2="421.875" y1="764.5833" y2="764.5833"/><!--class Model--><rect fill="#FEFECE" filter="url(#fogtwomhzgqv9)" height="95.8333" id="Model" style="stroke: #A80036; stroke-width: 3.125;" width="143.75" x="2911.4583" y="250"/><ellipse cx="2940.625" cy="281.25" fill="#ADD1B2" rx="20.8333" ry="20.8333" style="stroke: #A80036; stroke-width: 2.0833333333333335;"/><path d="M2938.5417,290.3971 Q2935.5794,290.3971 2933.8379,288.1836 Q2932.0964,285.9701 2932.0964,281.2174 Q2932.0964,277.181 2933.9518,274.5443 Q2935.8073,271.9076 2938.9648,271.9076 Q2941.7969,271.9076 2942.5456,272.1029 Q2943.2943,272.4284 2943.2943,272.4284 Q2943.2943,272.4284 2943.2943,272.3145 Q2943.2943,272.2005 2944.0755,270.4102 L2945.931,276.5625 L2943.3594,277.3438 Q2942.5781,274.7396 2941.5202,273.6816 Q2940.4622,272.6237 2938.7695,272.6237 Q2938.6393,272.6237 2937.4186,275.0651 Q2936.1979,277.5065 2936.1979,281.0872 Q2936.1979,285.026 2937.2559,287.2396 Q2938.3138,289.4531 2938.6719,289.4531 Q2940.3646,289.4531 2941.569,288.2324 Q2942.7734,287.0117 2943.3594,284.1797 L2945.931,285.319 Q2945.4102,287.5651 2943.9779,288.9811 Q2942.5456,290.3971 2938.5417,290.3971 Z "/><text fill="#000000" font-family="Monospace" font-size="27.0833" font-weight="bold" lengthAdjust="spacingAndGlyphs" textLength="81.25" x="2967.7083" y="293.7932">Model</text><line style="stroke: #A80036; stroke-width: 3.125;" x1="2913.5417" x2="3053.125" y1="312.5" y2="312.5"/><line style="stroke: #A80036; stroke-width: 3.125;" x1="2913.5417" x2="3053.125" y1="329.1667" y2="329.1667"/><!--class Map--><rect fill="#FEFECE" filter="url(#fogtwomhzgqv9)" height="95.8333" id="Map" style="stroke: #A80036; stroke-width: 3.125;" width="118.75" x="3223.9583" y="1062.5"/><ellipse cx="3253.125" cy="1093.75" fill="#ADD1B2" rx="20.8333" ry="20.8333" style="stroke: #A80036; stroke-width: 2.0833333333333335;"/><path d="M3251.0417,1102.8971 Q3248.0794,1102.8971 3246.3379,1100.6836 Q3244.5964,1098.4701 3244.5964,1093.7174 Q3244.5964,1089.681 3246.4518,1087.0443 Q3248.3073,1084.4076 3251.4648,1084.4076 Q3254.2969,1084.4076 3255.0456,1084.6029 Q3255.7943,1084.9284 3255.7943,1084.9284 Q3255.7943,1084.9284 3255.7943,1084.8145 Q3255.7943,1084.7005 3256.5755,1082.9102 L3258.431,1089.0625 L3255.8594,1089.8438 Q3255.0781,1087.2396 3254.0202,1086.1816 Q3252.9622,1085.1237 3251.2695,1085.1237 Q3251.1393,1085.1237 3249.9186,1087.5651 Q3248.6979,1090.0065 3248.6979,1093.5872 Q3248.6979,1097.526 3249.7559,1099.7396 Q3250.8138,1101.9531 3251.1719,1101.9531 Q3252.8646,1101.9531 3254.069,1100.7324 Q3255.2734,1099.5117 3255.8594,1096.6797 L3258.431,1097.819 Q3257.9102,1100.0651 3256.4779,1101.4811 Q3255.0456,1102.8971 3251.0417,1102.8971 Z "/><text fill="#000000" font-family="Monospace" font-size="27.0833" font-weight="bold" lengthAdjust="spacingAndGlyphs" textLength="56.25" x="3280.2083" y="1106.2932">Map</text><line style="stroke: #A80036; stroke-width: 3.125;" x1="3226.0417" x2="3340.625" y1="1125" y2="1125"/><line style="stroke: #A80036; stroke-width: 3.125;" x1="3226.0417" x2="3340.625" y1="1141.6667" y2="1141.6667"/><polygon fill="#FFFFFF" filter="url(#fogtwomhzgqv9)" points="3173.9583,675,3267.7083,675,3282.2917,724.4883,3296.875,724.4883,3296.875,790.6433,3173.9583,790.6433,3173.9583,675" style="stroke: #000000; stroke-width: 3.125;"/><line style="stroke: #000000; stroke-width: 3.125;" x1="3173.9583" x2="3282.2917" y1="724.4883" y2="724.4883"/><text fill="#000000" font-family="Monospace" font-size="27.0833" font-weight="bold" lengthAdjust="spacingAndGlyphs" textLength="81.25" x="3182.2917" y="710.2041">Vue.js</text><!--link User to UserInfo--><path d="M3830.7917,1567.5688 C3782.9583,1612.8292 3720.5,1671.925 3677.8542,1712.2729 " fill="none" id="User-UserInfo" style="stroke: #A80036; stroke-width: 2.0833333333333335;"/><polygon fill="#A80036" points="3850.9583,1548.4875,3836.1503,1551.0204,3832.7929,1565.6636,3847.601,1563.1307,3850.9583,1548.4875" style="stroke: #A80036; stroke-width: 2.0833333333333335;"/><!--link User to FriendInfo--><path d="M3896.4167,1575.6188 C3894.2708,1619.6563 3891.6042,1674.2771 3889.75,1712.2729 " fill="none" id="User-FriendInfo" style="stroke: #A80036; stroke-width: 2.0833333333333335;"/><polygon fill="#A80036" points="3897.7292,1548.4875,3888.7953,1560.5656,3896.5082,1573.4577,3905.4421,1561.3796,3897.7292,1548.4875" style="stroke: #A80036; stroke-width: 2.0833333333333335;"/><!--link User to TravelGroup--><path d="M3911.8333,1425.1354 C3921.3125,1390.1917 3938.3333,1350.8479 3968.75,1327.0833 C4058.625,1256.8563 4117.1667,1334.4083 4222.9167,1291.6667 C4299.2917,1260.7917 4373.875,1201.0146 4420.4792,1159.025 " fill="none" id="User-TravelGroup" style="stroke: #A80036; stroke-width: 2.0833333333333335;"/><polygon fill="#A80036" points="3905.7083,1451.8333,3916.6214,1441.5087,3911.2883,1427.464,3900.3752,1437.7887,3905.7083,1451.8333" style="stroke: #A80036; stroke-width: 2.0833333333333335;"/><!--link UserInfo to UserInfoBase--><path d="M3641.4375,1808.4354 C3655.3333,1860.4771 3678.2917,1946.4625 3695.6042,2011.2292 " fill="none" id="UserInfo-UserInfoBase" style="stroke: #A80036; stroke-width: 2.0833333333333335;"/><polygon fill="none" points="3709.8333,2007.9813,3706.4792,2052,3681.6458,2015.5063,3709.8333,2007.9813" style="stroke: #A80036; stroke-width: 2.0833333333333335;"/><!--link FriendInfo to UserInfoBase--><path d="M3864.3958,1808.4354 C3837.8333,1861.2271 3793.6875,1948.95 3760.9583,2014.0188 " fill="none" id="FriendInfo-UserInfoBase" style="stroke: #A80036; stroke-width: 2.0833333333333335;"/><polygon fill="none" points="3773.6042,2021.3313,3741.8542,2052,3747.5417,2008.2229,3773.6042,2021.3313" style="stroke: #A80036; stroke-width: 2.0833333333333335;"/><!--link TravelGroup to Travel--><path d="M4462.7292,1186.7354 C4456.375,1265.1229 4446.5625,1386.2417 4441.2292,1451.8625 " fill="none" id="TravelGroup-Travel" style="stroke: #A80036; stroke-width: 2.0833333333333335;"/><polygon fill="#FFFFFF" points="4464.9792,1158.9896,4455.6632,1170.7755,4462.9594,1183.9079,4472.2754,1172.122,4464.9792,1158.9896" style="stroke: #A80036; stroke-width: 2.0833333333333335;"/><!--link Travel to TravelInfo--><path d="M4441.6875,1575.6188 C4444.1875,1619.6563 4447.2917,1674.2771 4449.4583,1712.2729 " fill="none" id="Travel-TravelInfo" style="stroke: #A80036; stroke-width: 2.0833333333333335;"/><polygon fill="#A80036" points="4440.1458,1548.4875,4432.5357,1561.4405,4441.5654,1573.4472,4449.1755,1560.4941,4440.1458,1548.4875" style="stroke: #A80036; stroke-width: 2.0833333333333335;"/><!--link Travel to User--><path d="M4355.1875,1447.7104 C4276.375,1400.9583 4152.3333,1335.8563 4034.375,1309.375 C4004.8958,1302.7563 3989.3125,1304.9479 3968.75,1327.0833 C3936.4375,1361.8792 3918.5625,1413.7292 3909.2083,1451.575 " fill="none" id="Travel-User" style="stroke: #A80036; stroke-width: 2.0833333333333335; stroke-dasharray: 7.0,7.0;"/><polygon fill="#A80036" points="4364.5833,1453.3167,4352.7418,1436.56,4355.6349,1447.9845,4344.2104,1450.8776,4364.5833,1453.3167" style="stroke: #A80036; stroke-width: 2.0833333333333335;"/><!--link Travel to FriendInfo--><path d="M4354.5208,1540.7417 C4255.7708,1586.75 4091.0625,1663.4938 3985.9583,1712.4646 " fill="none" id="Travel-FriendInfo" style="stroke: #A80036; stroke-width: 2.0833333333333335; stroke-dasharray: 7.0,7.0;"/><polygon fill="#A80036" points="4364.4583,1536.1104,4343.9433,1536.4866,4355.0186,1540.5148,4350.9904,1551.5901,4364.4583,1536.1104" style="stroke: #A80036; stroke-width: 2.0833333333333335;"/><!--link TravelInfo to City--><path d="M4459.3333,1835.5479 C4465.8958,1901.4021 4475.3125,1996.2125 4480.8542,2052 " fill="none" id="TravelInfo-City" style="stroke: #A80036; stroke-width: 2.0833333333333335;"/><polygon fill="#FFFFFF" points="4456.6458,1808.4354,4449.5904,1821.6987,4459.1198,1833.3127,4466.1753,1820.0494,4456.6458,1808.4354" style="stroke: #A80036; stroke-width: 2.0833333333333335;"/><!--link TravelInfo to Time--><path d="M4418.4167,1832.9063 C4386.875,1898.8438 4340.6667,1995.4625 4313.625,2052 " fill="none" id="TravelInfo-Time" style="stroke: #A80036; stroke-width: 2.0833333333333335;"/><polygon fill="#A80036" points="4430.1042,1808.4354,4417.1928,1816.116,4419.3167,1830.9883,4432.2281,1823.3077,4430.1042,1808.4354" style="stroke: #A80036; stroke-width: 2.0833333333333335;"/><!--link Model to Server--><path d="M3055.2917,331.8333 C3104.5208,353.8958 3171.1458,384.25 3229.1667,412.5 C3420.9792,505.8958 3642.3958,622.5417 3760.75,685.625 " fill="none" id="Model-Server" style="stroke: #A80036; stroke-width: 2.0833333333333335; stroke-dasharray: 7.0,7.0;"/><polygon fill="#A80036" points="3770.4792,690.8167,3757.8691,674.6304,3761.2918,685.9076,3750.0146,689.3303,3770.4792,690.8167" style="stroke: #A80036; stroke-width: 2.0833333333333335;"/><!--link Server to Interface--><path d="M3847.125,781.8938 C3848.7917,841.3938 3851.7083,945.7146 3853.7917,1020.4208 " fill="none" id="Server-Interface" style="stroke: #A80036; stroke-width: 2.0833333333333335; stroke-dasharray: 7.0,7.0;"/><polygon fill="none" points="3868.375,1020.3854,3854.9583,1062.4438,3839.2292,1021.2,3868.375,1020.3854" style="stroke: #A80036; stroke-width: 2.0833333333333335;"/><!--link MapView to Map--><path d="M2048.8646,781.4271 C2072.1458,810.7063 2106.3542,846.4229 2145.8333,864.5833 C2528,1040.4375 2702.0833,773.725 3089.5833,937.5 C3149.6042,962.8688 3203.9167,1014.4792 3239.6667,1054.3688 " fill="none" id="MapView-Map" style="stroke: #A80036; stroke-width: 2.0833333333333335; stroke-dasharray: 7.0,7.0;"/><polygon fill="#A80036" points="3246.5625,1062.1792,3240.4208,1042.6015,3239.6766,1054.3631,3227.915,1053.6189,3246.5625,1062.1792" style="stroke: #A80036; stroke-width: 2.0833333333333335;"/><!--link MapView to MapComponent--><path d="M2109.8958,733.3333 C2130.7292,733.3333 2151.5833,733.3333 2172.4167,733.3333 " fill="none" id="MapView-MapComponent" style="stroke: #A80036; stroke-width: 2.0833333333333335; stroke-dasharray: 7.0,7.0;"/><polygon fill="#A80036" points="2183.3125,733.3333,2164.5625,725,2172.8958,733.3333,2164.5625,741.6667,2183.3125,733.3333" style="stroke: #A80036; stroke-width: 2.0833333333333335;"/><!--link MainBasicView to FriendView--><path d="M2106.5625,370 C2121.8542,379.75 2138.0417,388.7917 2154.1667,395.8333 C2294,456.8333 2367.125,377.7917 2489.5833,468.75 C2562.8125,523.1521 2604.0833,625.8438 2622.8542,685.3812 " fill="none" id="MainBasicView-FriendView" style="stroke: #A80036; stroke-width: 2.0833333333333335;"/><polygon fill="none" points="2097.7917,381.6875,2071.8563,345.9583,2114.4167,357.7083,2097.7917,381.6875" style="stroke: #A80036; stroke-width: 2.0833333333333335;"/><!--link MainBasicView to MapView--><path d="M2016.6667,388.375 C2016.6667,478.2667 2016.6667,614.0833 2016.6667,684.7792 " fill="none" id="MainBasicView-MapView" style="stroke: #A80036; stroke-width: 2.0833333333333335;"/><polygon fill="none" points="2002.0833,387.8125,2016.6667,346.1458,2031.25,387.8125,2002.0833,387.8125" style="stroke: #A80036; stroke-width: 2.0833333333333335;"/><!--link MainBasicView to ProfileView--><path d="M1952.0104,379.5 C1930.5792,407.125 1907.1875,438.7083 1887.5,468.75 C1839.7729,541.5646 1792.2542,631.0875 1764.9833,684.5313 " fill="none" id="MainBasicView-ProfileView" style="stroke: #A80036; stroke-width: 2.0833333333333335;"/><polygon fill="none" points="1941.2833,369.5625,1978.5792,345.9375,1964.1521,387.6458,1941.2833,369.5625" style="stroke: #A80036; stroke-width: 2.0833333333333335;"/><!--link EntranceBasicView to LoginView--><path d="M1189.4,387.7708 C1178.5458,477.6417 1162.0875,613.9229 1153.5292,684.7792 " fill="none" id="EntranceBasicView-LoginView" style="stroke: #A80036; stroke-width: 2.0833333333333335;"/><polygon fill="none" points="1174.9521,385.7708,1194.4271,346.1458,1203.9083,389.2708,1174.9521,385.7708" style="stroke: #A80036; stroke-width: 2.0833333333333335;"/><!--link EntranceBasicView to RegisterView--><path d="M1246.4417,382.875 C1296.7396,472.625 1375.1917,612.625 1415.625,684.7792 " fill="none" id="EntranceBasicView-RegisterView" style="stroke: #A80036; stroke-width: 2.0833333333333335;"/><polygon fill="none" points="1233.5104,389.625,1225.8625,346.1458,1258.9542,375.375,1233.5104,389.625" style="stroke: #A80036; stroke-width: 2.0833333333333335;"/><!--link ProfileView to UserInfoComponent--><path d="M1768.6688,781.8938 C1808.6208,850.6563 1883.3521,979.2792 1926.1104,1052.8729 " fill="none" id="ProfileView-UserInfoComponent" style="stroke: #A80036; stroke-width: 2.0833333333333335; stroke-dasharray: 7.0,7.0;"/><polygon fill="#A80036" points="1931.6708,1062.4438,1929.4575,1042.045,1926.4381,1053.4368,1915.0463,1050.4174,1931.6708,1062.4438" style="stroke: #A80036; stroke-width: 2.0833333333333335;"/><!--link ProfileView to FriendRequestComponent--><path d="M1782.8979,781.4229 C1810.0979,809.1896 1847.9146,843.2188 1887.5,864.5833 C1996.4125,923.3646 2044.3917,884.5396 2156.25,937.5 C2221.875,968.575 2288.5,1017.8125 2334.7708,1055.4625 " fill="none" id="ProfileView-FriendRequestComponent" style="stroke: #A80036; stroke-width: 2.0833333333333335; stroke-dasharray: 7.0,7.0;"/><polygon fill="#A80036" points="2343.1667,1062.35,2333.9563,1044.0149,2335.1134,1055.7431,2323.3852,1056.9002,2343.1667,1062.35" style="stroke: #A80036; stroke-width: 2.0833333333333335;"/><!--link MainBasicView to HeaderComponent--><path d="M2068.4917,345.875 C2092.8188,364.7083 2123.2292,384.6875 2154.1667,395.8333 C2238.0833,426.0833 2265.4792,402.9375 2354.1667,412.5 C2448.8958,422.7083 2713.75,399.5 2779.1667,468.75 C2857.4167,551.5792 2841.1667,910.7729 2831.5208,1051.4896 " fill="none" id="MainBasicView-HeaderComponent" style="stroke: #A80036; stroke-width: 2.0833333333333335; stroke-dasharray: 7.0,7.0;"/><polygon fill="#A80036" points="2830.7708,1062.0354,2840.3967,1043.915,2831.5003,1051.6443,2823.771,1042.7479,2830.7708,1062.0354" style="stroke: #A80036; stroke-width: 2.0833333333333335;"/><!--link MainBasicView to NavigationComponent--><path d="M1887.3646,319.8125 C1618.9417,361.1667 1024.7021,454.1042 1008.3333,468.75 C872.0271,590.6958 958.1292,692.6271 895.8333,864.5833 C871.8771,930.7104 838.2167,1004.1667 814.7979,1052.9813 " fill="none" id="MainBasicView-NavigationComponent" style="stroke: #A80036; stroke-width: 2.0833333333333335; stroke-dasharray: 7.0,7.0;"/><polygon fill="#A80036" points="810.2563,1062.4063,825.9017,1049.1312,814.7773,1053.0219,810.8866,1041.8975,810.2563,1062.4063" style="stroke: #A80036; stroke-width: 2.0833333333333335;"/><!--link LoginView to LoginComponent--><path d="M1152.3313,781.8938 C1158.8354,850.375 1170.9771,978.2292 1177.9813,1051.9688 " fill="none" id="LoginView-LoginComponent" style="stroke: #A80036; stroke-width: 2.0833333333333335; stroke-dasharray: 7.0,7.0;"/><polygon fill="#A80036" points="1178.975,1062.4438,1185.5031,1042.9915,1177.9927,1052.0735,1168.9107,1044.5631,1178.975,1062.4438" style="stroke: #A80036; stroke-width: 2.0833333333333335;"/><!--link RegisterView to RegisterComponent--><path d="M1456.725,781.8938 C1478.9167,850.375 1520.3438,978.2292 1544.2375,1051.9688 " fill="none" id="RegisterView-RegisterComponent" style="stroke: #A80036; stroke-width: 2.0833333333333335; stroke-dasharray: 7.0,7.0;"/><polygon fill="#A80036" points="1547.6313,1062.4438,1549.7774,1042.0378,1544.4195,1052.5346,1533.9227,1047.1767,1547.6313,1062.4438" style="stroke: #A80036; stroke-width: 2.0833333333333335;"/><!--link EntranceBasicView to BackgroundComponent--><path d="M1045.1938,343.75 C1009.6625,360.25 975.0208,382.5417 950,412.5 C817.2604,571.4063 982.0667,716.3542 837.5,864.5833 C752.3354,951.9063 682.1375,883.1958 572.9167,937.5 C511.1104,968.2292 449.4958,1017.2125 406.7583,1054.8625 " fill="none" id="EntranceBasicView-BackgroundComponent" style="stroke: #A80036; stroke-width: 2.0833333333333335; stroke-dasharray: 7.0,7.0;"/><polygon fill="#A80036" points="398.4688,1062.2333,418.0195,1056.0063,406.2548,1055.3134,406.9476,1043.5487,398.4688,1062.2333" style="stroke: #A80036; stroke-width: 2.0833333333333335;"/><!--link _server to django--><path d="M4010.7485,737.3823 C4011.1037,737.4246 4011.4641,737.4676 4011.8298,737.5114 C4013.2926,737.6863 4014.8391,737.8723 4016.4675,738.0693 C4029.4942,739.6457 4047.758,741.9311 4070.2946,744.9425 C4115.3678,750.9653 4177.5326,759.8923 4249.0755,771.8602 C4392.1615,795.7958 4572.7604,831.8948 4729.1667,881.25 C4890.1875,932.0667 5068.4792,1017.8417 5167.2292,1068.1646 " fill="none" id="_server-django" style="stroke: #A80036; stroke-width: 2.0833333333333335; stroke-dasharray: 7.0,7.0;"/><polygon fill="#A80036" points="5176.5208,1072.9208,5163.6477,1056.943,5167.2544,1068.1627,5156.0347,1071.7694,5176.5208,1072.9208" style="stroke: #A80036; stroke-width: 2.0833333333333335;"/><text fill="#000000" font-family="Monospace" font-size="27.0833" font-weight="bold" lengthAdjust="spacingAndGlyphs" textLength="114.5833" x="4831.25" y="914.3707">import</text><!--link _travel to _utilities--><path d="M4673.042,1162.3382 C4673.4505,1163.6496 4673.8639,1164.9838 4674.282,1166.3403 C4677.6262,1177.193 4681.2653,1189.4792 4685.0456,1203.0058 C4700.1667,1257.1122 4717.5469,1331.0634 4727.3542,1412.4852 C4746.9688,1575.3286 4736.2917,1768.0542 4616.6667,1891.6667 C4551.0833,1959.4396 4265.0625,1865.3708 4193.75,1927.0833 C4186.6146,1933.2589 4180.627,1940.4438 4175.6137,1948.3031 C4174.3604,1950.2679 4173.168,1952.2749 4172.0338,1954.3188 C4171.4667,1955.3407 4170.9141,1956.3719 4170.3758,1957.4117 C4170.1066,1957.9315 4169.841,1958.4536 4169.5789,1958.9776 C4169.4478,1959.2397 4169.3176,1959.5022 4169.1883,1959.7653 " fill="none" id="_travel-_utilities" style="stroke: #A80036; stroke-width: 2.0833333333333335; stroke-dasharray: 7.0,7.0;"/><polygon fill="#A80036" points="4169.1883,1959.7653,4184.9383,1946.6144,4173.7835,1950.4169,4169.9809,1939.2622,4169.1883,1959.7653" style="stroke: #A80036; stroke-width: 2.0833333333333335;"/><text fill="#000000" font-family="Monospace" font-size="27.0833" font-weight="bold" lengthAdjust="spacingAndGlyphs" textLength="116.6667" x="4733.3333" y="1643.5374">access</text><!--link _user to _utilities--><path d="M4054.2435,1587.6195 C4054.8953,1590.949 4055.5616,1594.3521 4056.2415,1597.8247 C4067.1198,1653.3853 4081.4766,1726.7076 4095.8333,1800.0276 C4110.1901,1873.3477 4124.5469,1946.6655 4135.4251,2002.2173 C4136.105,2005.6892 4136.7713,2009.0918 4137.4232,2012.4207 " fill="none" id="_user-_utilities" style="stroke: #A80036; stroke-width: 2.0833333333333335; stroke-dasharray: 7.0,7.0;"/><polygon fill="#A80036" points="4137.4232,2012.4207,4141.998,1992.4187,4135.4214,2002.1982,4125.6419,1995.6216,4137.4232,2012.4207" style="stroke: #A80036; stroke-width: 2.0833333333333335;"/><text fill="#000000" font-family="Monospace" font-size="27.0833" font-weight="bold" lengthAdjust="spacingAndGlyphs" textLength="116.6667" x="4116.6667" y="1773.7457">access</text><!--link _server to _travel--><path d="M4010.8775,735.2943 C4011.233,735.2961 4011.5937,735.2981 4011.9595,735.3003 C4013.4225,735.3093 4014.9672,735.3223 4016.5913,735.3403 C4029.5836,735.4838 4047.6515,735.9421 4069.5739,737.1609 C4113.4186,739.5986 4172.681,745.0781 4237.5911,757.1651 C4367.4115,781.3391 4519.8229,831.9427 4616.6667,937.5 C4623.0469,944.4542 4628.4622,952.2292 4633.0529,960.5242 C4634.2006,962.598 4635.2967,964.7043 4636.3434,966.8383 C4636.8668,967.9054 4637.3779,968.9794 4637.8769,970.0597 " fill="none" id="_server-_travel" style="stroke: #A80036; stroke-width: 2.0833333333333335; stroke-dasharray: 7.0,7.0;"/><polygon fill="#A80036" points="4637.8769,970.0597,4637.5803,949.5434,4633.5091,960.603,4622.4495,956.5318,4637.8769,970.0597" style="stroke: #A80036; stroke-width: 2.0833333333333335;"/><text fill="#000000" font-family="Monospace" font-size="27.0833" font-weight="bold" lengthAdjust="spacingAndGlyphs" textLength="114.5833" x="4595.8333" y="914.3707">import</text><!--link _server to _user--><path d="M4010.616,1029.4295 C4010.9446,1035.1552 4011.2748,1040.9086 4011.6063,1046.6842 C4012.9323,1069.7866 4014.2786,1093.244 4015.625,1116.7013 C4018.3177,1163.6158 4021.0104,1210.5296 4023.54,1254.6012 C4024.8049,1276.6369 4026.0289,1297.9621 4027.1918,1318.2215 C4027.7732,1328.3512 4028.3394,1338.2144 4028.8877,1347.7669 C4029.0248,1350.155 4029.1607,1352.5236 4029.2955,1354.8722 C4029.3629,1356.0465 4029.4301,1357.2157 4029.4969,1358.3798 C4029.5303,1358.9619 4029.5636,1359.5427 4029.5969,1360.1222 " fill="none" id="_server-_user" style="stroke: #A80036; stroke-width: 2.0833333333333335; stroke-dasharray: 7.0,7.0;"/><polygon fill="#A80036" points="4029.5969,1360.1222,4036.842,1340.9255,4028.9999,1349.7226,4020.2027,1341.8806,4029.5969,1360.1222" style="stroke: #A80036; stroke-width: 2.0833333333333335;"/><text fill="#000000" font-family="Monospace" font-size="27.0833" font-weight="bold" lengthAdjust="spacingAndGlyphs" textLength="114.5833" x="4029.1667" y="1123.7457">import</text><!--link _view to Vue.js--><path d="M2810.6409,328.8088 C2811.4107,329.9752 2812.2045,331.1616 2813.0218,332.3649 C2814.6563,334.7715 2816.3848,337.2458 2818.2031,339.763 C2832.75,359.901 2853.0521,382.7917 2877.0833,395.8333 C2923.9167,421.25 2944.8333,397.0417 2995.8333,412.5 C3050.9167,429.2083 3072.0208,427.8125 3112.5,468.75 C3166.4583,523.3229 3199.75,606.0354 3217.8542,663.9917 " fill="none" id="_view-Vue.js" style="stroke: #A80036; stroke-width: 2.0833333333333335; stroke-dasharray: 7.0,7.0;"/><polygon fill="#A80036" points="3221.0625,674.5125,3223.5731,654.1482,3218.0284,664.5475,3207.6291,659.0028,3221.0625,674.5125" style="stroke: #A80036; stroke-width: 2.0833333333333335;"/><text fill="#000000" font-family="Monospace" font-size="27.0833" font-weight="bold" lengthAdjust="spacingAndGlyphs" textLength="114.5833" x="3095.8333" y="445.6207">import</text><!--link _view to _components--><path d="M2810.5222,337.2623 C2810.8121,337.9217 2811.1042,338.587 2811.3984,339.2578 C2820.8125,360.724 2832.3438,387.8854 2841.6667,412.5 C2928.8125,642.4979 2949.9375,700.7688 3016.6667,937.5 C3019.2266,946.5839 3021.7471,955.9728 3024.2002,965.4596 C3024.5068,966.6455 3024.8124,967.8329 3025.1168,969.0214 C3025.2691,969.6156 3025.421,970.2102 3025.5727,970.8049 " fill="none" id="_view-_components" style="stroke: #A80036; stroke-width: 2.0833333333333335; stroke-dasharray: 7.0,7.0;"/><polygon fill="#A80036" points="3025.5727,970.8049,3029.0144,950.5772,3022.9987,960.7113,3012.8646,954.6957,3025.5727,970.8049" style="stroke: #A80036; stroke-width: 2.0833333333333335;"/><text fill="#000000" font-family="Monospace" font-size="27.0833" font-weight="bold" lengthAdjust="spacingAndGlyphs" textLength="114.5833" x="2997.9167" y="746.6624">import</text><!--link Message to Utilities--><!--link Message to Gender--><!--link Gender to Visibility--><!--link UserInfoController to CityInfoController--><!--link UserInfoController to TravelController--><!--
@startuml PackageDiagram.backend

skinparam Dpi 200
skinparam DefaultFont {
    Name Monospace
    Size 13
    Style bold
}

namespace Backend {
    package _utilities {
        class City
        class Time
        class Message
        class Utilities
        enum Gender
        enum Visibility
    }
    package _server{
        class Server
        interface Interface
    }

    package _travel {
        class Travel
        class TravelGroup
        class TravelInfo
    }

    package _user {
        class User
        class UserInfoBase
        class UserInfo
        class FriendInfo
    }
}

package django {
}

namespace Frontend{
    package _view{
        abstract class MainBasicView
        class FriendView
        class MapView
        class MapComponent
        class ProfileView
        abstract class EntranceBasicView
        class LoginView
        class RegisterView
        
    }
    package _components{
            class HeaderComponent
            class RegisterComponent
            class LoginComponent
            class BackgroundComponent
            class NavigationComponent
            class FriendRequestComponent
            class UserInfoComponent
        }
    package _controller{
        class UserInfoController
        class CityInfoController
        class TravelController
    }
    package _model{
        class Model
    }
}

package leaflet.js{
    class Map
}
package Vue.js{
    
}

User        *- -  UserInfo
User        *- -  FriendInfo
User        *- -  TravelGroup
UserInfo    - -|> UserInfoBase
FriendInfo  - -|> UserInfoBase
TravelGroup o- -  Travel
Travel      *- -  TravelInfo
Travel      <..  User
Travel      <..  FriendInfo
TravelInfo  o- -  City
TravelInfo  *- -  Time


Model .down.> Server
Server ..|> Interface

MapView ..> Map
MapView .> MapComponent

MainBasicView <|- - FriendView
MainBasicView <|- - MapView
MainBasicView <|- - ProfileView
EntranceBasicView <|- - LoginView
EntranceBasicView <|- - RegisterView

ProfileView ..> UserInfoComponent
ProfileView ..> FriendRequestComponent
MainBasicView ..> HeaderComponent
MainBasicView ..> NavigationComponent
LoginView ..>LoginComponent
RegisterView ..>RegisterComponent
EntranceBasicView ..> BackgroundComponent

_server    ..> django:    <<import>>
_travel    ..> _utilities: <<access>>
_user      .down.> _utilities: <<access>>
_server ..> _travel:    <<import>>
_server ..> _user:      <<import>>
_view ..> Vue.js: <<import>>
_view ..> _components: <<import>>
@enduml

PlantUML version 1.2019.03(Sun Mar 10 19:04:44 CST 2019)
(GPL source distribution)
Java Runtime: Java(TM) SE Runtime Environment
JVM: Java HotSpot(TM) Client VM
Java Version: 1.8.0_181-b13
Operating System: Windows 10
OS Version: 10.0
Default Encoding: GBK
Language: zh
Country: CN
--></g></svg>