<?xml version="1.0" standalone="no"?><!DOCTYPE svg PUBLIC "-//W3C//DTD SVG 1.1//EN" "http://www.w3.org/Graphics/SVG/1.1/DTD/svg11.dtd"><svg t="1557927680341" class="icon" style="" viewBox="0 0 1024 1024" version="1.1" xmlns="http://www.w3.org/2000/svg" p-id="1951" xmlns:xlink="http://www.w3.org/1999/xlink" width="200" height="200"><defs><style type="text/css"></style></defs><path d="M657.65376 352.79872c-7.2704-17.80736-32.49152-17.80736-39.76192 0l-250.9824 614.79936h541.72672l-250.9824-614.79936z" fill="#3792CF" p-id="1952"></path><path d="M354.46784 461.9776c-5.98016-14.6432-26.71616-14.6432-32.69632 0L115.36384 967.59808h251.5456l96.98304-237.568-109.42464-268.05248z" fill="#6AC9CC" p-id="1953"></path><path d="M512 181.2992m-92.52864 0a92.52864 92.52864 0 1 0 185.05728 0 92.52864 92.52864 0 1 0-185.05728 0Z" fill="#FEE36F" p-id="1954"></path><path d="M967.61856 962.41664h-55.5008L662.44608 350.84288a26.2144 26.2144 0 0 0-24.6784-16.57856 26.2144 26.2144 0 0 0-24.66816 16.57856L463.89248 716.32896l-104.63232-256.3072c-3.57376-8.76544-11.6736-14.20288-21.1456-14.20288s-17.5616 5.43744-21.1456 14.20288L111.88224 962.41664h-55.5008a5.18144 5.18144 0 1 0 0 10.36288H967.61856a5.18144 5.18144 0 1 0 0-10.36288zM326.56384 463.94368c2.33472-5.72416 7.50592-7.76192 11.56096-7.76192s9.216 2.03776 11.56096 7.76192l108.62592 266.0864-86.43584 211.73248-8.43776 20.66432H123.06432l203.49952-498.4832z m48.04608 498.47296l2.80576-6.88128 91.26912-223.55968v-0.01024l153.99936-377.22112c3.05152-7.4752 9.78944-10.1376 15.08352-10.1376 5.29408 0 12.032 2.6624 15.08352 10.1376l248.07424 607.67232H374.60992zM395.83744 227.584a5.1712 5.1712 0 0 0-2.6112 6.84032c3.69664 8.25344 8.2944 16.15872 13.64992 23.5008a5.16096 5.16096 0 0 0 7.23968 1.1264 5.18144 5.18144 0 0 0 1.1264-7.23968 120.35072 120.35072 0 0 1-12.56448-21.62688 5.18144 5.18144 0 0 0-6.84032-2.60096zM410.75712 113.3056a5.18144 5.18144 0 0 0 4.1984-2.14016 121.25184 121.25184 0 0 1 16.70144-18.6368 5.1712 5.1712 0 1 0-6.95296-7.66976 131.90144 131.90144 0 0 0-18.14528 20.23424 5.18144 5.18144 0 0 0 4.1984 8.21248zM388.67968 160.6656a5.19168 5.19168 0 0 0 6.13376-4.00384c1.71008-8.16128 4.29056-16.16896 7.66976-23.79776a5.18144 5.18144 0 0 0-9.46176-4.1984c-3.67616 8.2944-6.48192 17.00864-8.33536 25.87648a5.16096 5.16096 0 0 0 3.9936 6.12352zM592.15872 270.2336c-6.20544 5.59104-13.0048 10.5472-20.224 14.73536a5.1712 5.1712 0 1 0 5.19168 8.96 130.85696 130.85696 0 0 0 21.9648-16.00512 5.18144 5.18144 0 0 0-6.93248-7.69024zM549.09952 295.168c-7.91552 2.58048-16.14848 4.32128-24.46336 5.20192a5.18144 5.18144 0 0 0 1.0752 10.30144 129.87392 129.87392 0 0 0 26.59328-5.65248 5.1712 5.1712 0 1 0-3.20512-9.85088zM389.8368 212.6848a5.18144 5.18144 0 0 0 5.0688-6.25664 120.9856 120.9856 0 0 1-2.64192-24.8832 5.18144 5.18144 0 0 0-5.18144-5.16096H387.072a5.18144 5.18144 0 0 0-5.16096 5.19168c0.02048 9.10336 0.98304 18.19648 2.8672 27.02336a5.18144 5.18144 0 0 0 5.05856 4.08576zM475.12576 295.23968a5.18144 5.18144 0 0 0-3.19488 9.85088 129.82272 129.82272 0 0 0 27.14624 5.632 5.1712 5.1712 0 0 0 0.52224-10.32192 119.93088 119.93088 0 0 1-24.4736-5.16096zM432.01536 270.3872a5.18144 5.18144 0 0 0-6.92224 7.70048 130.51904 130.51904 0 0 0 22.00576 15.96416 5.16096 5.16096 0 0 0 5.1712-8.96 120.55552 120.55552 0 0 1-20.25472-14.70464zM608.62464 110.57152a5.1712 5.1712 0 1 0 8.3456-6.12352 130.4064 130.4064 0 0 0-18.25792-20.1216 5.18144 5.18144 0 0 0-6.90176 7.72096 121.27232 121.27232 0 0 1 16.81408 18.52416zM628.25472 227.35872a5.19168 5.19168 0 0 0-6.84032 2.62144 119.4496 119.4496 0 0 1-12.52352 21.6576 5.1712 5.1712 0 1 0 8.36608 6.0928c5.34528-7.34208 9.92256-15.2576 13.60896-23.54176a5.15072 5.15072 0 0 0-2.6112-6.83008zM631.72608 181.2992c0 8.3968-0.8704 16.76288-2.59072 24.8832a5.1712 5.1712 0 0 0 10.12736 2.14016c1.86368-8.82688 2.816-17.92 2.816-27.10528l-5.18144-0.44032h5.18144c0-2.85696-2.31424-4.9152-5.1712-4.9152s-5.18144 2.58048-5.18144 5.43744zM629.03296 155.93472a5.18144 5.18144 0 0 0 10.12736-2.18112 129.76128 129.76128 0 0 0-8.4992-25.82528 5.18144 5.18144 0 0 0-9.44128 4.25984c3.4304 7.60832 6.06208 15.59552 7.81312 23.74656zM548.63872 67.28704c7.936 2.54976 15.62624 5.94944 22.87616 10.10688a5.18144 5.18144 0 0 0 5.15072-8.98048 128.91136 128.91136 0 0 0-24.87296-10.98752 5.16096 5.16096 0 0 0-6.51264 3.34848 5.19168 5.19168 0 0 0 3.35872 6.51264zM449.24928 78.46912a5.12 5.12 0 0 0 2.60096-0.70656 119.64416 119.64416 0 0 1 22.81472-10.25024 5.18144 5.18144 0 0 0-3.2256-9.84064c-8.6016 2.82624-16.9472 6.56384-24.80128 11.14112a5.18144 5.18144 0 0 0 2.6112 9.65632zM498.56512 62.28992a5.00736 5.00736 0 0 0 0.55296-0.03072c4.22912-0.45056 8.54016-0.68608 12.81024-0.68608h0.06144c4.05504 0 8.1408 0.2048 12.14464 0.60416a5.1712 5.1712 0 1 0 1.03424-10.31168A137.1136 137.1136 0 0 0 512 51.22048c-4.78208 0.0512-9.3696 0.24576-13.98784 0.74752a5.1712 5.1712 0 0 0 0.55296 10.32192zM512 278.99904c53.87264 0 97.71008-43.8272 97.71008-97.69984S565.87264 83.59936 512 83.59936s-97.71008 43.8272-97.71008 97.69984 43.83744 97.69984 97.71008 97.69984z m0-185.04704c48.16896 0 87.3472 39.17824 87.3472 87.3472 0 48.16896-39.18848 87.3472-87.3472 87.3472s-87.3472-39.17824-87.3472-87.3472c0-48.15872 39.17824-87.3472 87.3472-87.3472z" fill="#136296" p-id="1955"></path><path d="M639.6416 391.9872a5.19168 5.19168 0 0 0-6.69696 2.95936l-6.53312 16.87552a5.18144 5.18144 0 0 0 9.66656 3.7376l6.53312-16.88576a5.1712 5.1712 0 0 0-2.9696-6.68672zM541.57312 644.57728a5.1712 5.1712 0 0 0-6.69696 2.93888l-13.12768 33.65888a5.18144 5.18144 0 0 0 4.8128 7.0656 5.18144 5.18144 0 0 0 4.82304-3.29728l13.12768-33.65888a5.1712 5.1712 0 0 0-2.93888-6.7072zM593.94048 509.9008a5.16096 5.16096 0 0 0-6.69696 2.94912l-13.07648 33.67936a5.19168 5.19168 0 0 0 4.82304 7.05536 5.1712 5.1712 0 0 0 4.82304-3.29728l13.07648-33.67936a5.18144 5.18144 0 0 0-2.94912-6.7072zM620.07296 442.50112a5.18144 5.18144 0 0 0-6.69696 2.95936l-13.06624 33.69984a5.1712 5.1712 0 0 0 9.65632 3.74784l13.06624-33.69984a5.18144 5.18144 0 0 0-2.95936-6.7072zM567.77728 577.25952a5.1712 5.1712 0 0 0-6.69696 2.94912l-13.09696 33.66912a5.1712 5.1712 0 0 0 9.65632 3.75808l13.09696-33.66912a5.20192 5.20192 0 0 0-2.95936-6.7072zM515.31776 711.90528a5.16096 5.16096 0 0 0-6.7072 2.93888l-13.14816 33.64864a5.18144 5.18144 0 0 0 9.64608 3.77856l13.1584-33.64864a5.19168 5.19168 0 0 0-2.94912-6.71744zM462.58176 846.4384a5.20192 5.20192 0 0 0-6.71744 2.9184c-4.6592 11.81696-9.10336 23.06048-13.28128 33.5872a5.18144 5.18144 0 0 0 9.6256 3.82976c4.17792-10.53696 8.63232-21.79072 13.29152-33.60768a5.19168 5.19168 0 0 0-2.9184-6.72768zM489.00096 779.19232a5.18144 5.18144 0 0 0-6.7072 2.92864l-13.19936 33.62816a5.19168 5.19168 0 0 0 9.64608 3.79904l13.19936-33.6384a5.18144 5.18144 0 0 0-2.93888-6.71744zM436.11136 913.21344a5.1712 5.1712 0 0 0-6.72768 2.87744l-6.74816 16.77312a5.1712 5.1712 0 1 0 9.59488 3.88096l6.7584-16.80384a5.1712 5.1712 0 0 0-2.87744-6.72768z" fill="#FFFFFF" p-id="1956"></path></svg>